<svg xmlns="http://www.w3.org/2000/svg" width="798.8386840820312" height="802.1282348632812" viewBox="-55.02427291870117 -275.52862548828125 798.8386840820312 802.1282348632812"><title>Neo4j Graph Visualization</title><desc>Created using Neo4j (http://www.neo4j.com/)</desc><g class="layer relationships"><g class="relationship" transform="translate(160.6972700824743 13.919611023695282) rotate(214.72913554044322)"><path class="outline" fill="#D4D6D7" stroke="none" d="M 40 0.5 L 70.9719925351448 0.5 L 70.9719925351448 -0.5 L 40 -0.5 Z M 130.9719925351448 0.5 L 161.9439850702896 0.5 L 161.9439850702896 3.5 L 168.9439850702896 0 L 161.9439850702896 -3.5 L 161.9439850702896 -0.5 L 130.9719925351448 -0.5 Z"/><text text-anchor="middle" pointer-events="none" font-size="8px" fill="#000000" x="100.9719925351448" y="3" transform="rotate(180 100.9719925351448 0)" font-family="sans-serif">Sem_N_PROP</text></g><g class="relationship" transform="translate(160.6972700824743 13.919611023695282) rotate(327.72825498860436)"><path class="outline" fill="#D4D6D7" stroke="none" d="M 40 0.5 L 78.73900524117386 0.5 L 78.73900524117386 -0.5 L 40 -0.5 Z M 138.73900524117386 0.5 L 177.4780104823477 0.5 L 177.4780104823477 3.5 L 184.4780104823477 0 L 177.4780104823477 -3.5 L 177.4780104823477 -0.5 L 138.73900524117386 -0.5 Z"/><text text-anchor="middle" pointer-events="none" font-size="8px" fill="#000000" x="108.73900524117386" y="3" font-family="sans-serif">Sem_N_PROP</text></g><g class="relationship" transform="translate(160.6972700824743 13.919611023695282) rotate(361.0005710598738)"><path class="outline" fill="#D4D6D7" stroke="none" d="M 40 0.5 L 63.025488415174536 0.5 L 63.025488415174536 -0.5 L 40 -0.5 Z M 123.02548841517454 0.5 L 146.05097683034907 0.5 L 146.05097683034907 3.5 L 153.05097683034907 0 L 146.05097683034907 -3.5 L 146.05097683034907 -0.5 L 123.02548841517454 -0.5 Z"/><text text-anchor="middle" pointer-events="none" font-size="8px" fill="#000000" x="93.02548841517454" y="3" font-family="sans-serif">Sem_N_PROP</text></g><g class="relationship" transform="translate(158.1421269971696 242.9739291908088) rotate(389.0487809449059)"><path class="outline" fill="#D4D6D7" stroke="none" d="M 40 0.5 L 81.16854383031455 0.5 L 81.16854383031455 -0.5 L 40 -0.5 Z M 141.16854383031455 0.5 L 182.3370876606291 0.5 L 182.3370876606291 3.5 L 189.3370876606291 0 L 182.3370876606291 -3.5 L 182.3370876606291 -0.5 L 141.16854383031455 -0.5 Z"/><text text-anchor="middle" pointer-events="none" font-size="8px" fill="#000000" x="111.16854383031455" y="3" font-family="sans-serif">Sem_N_PROP</text></g><g class="relationship" transform="translate(158.1421269971696 242.9739291908088) rotate(330.7992810098543)"><path class="outline" fill="#D4D6D7" stroke="none" d="M 40 0.5 L 81.50857256500552 0.5 L 81.50857256500552 -0.5 L 40 -0.5 Z M 141.50857256500552 0.5 L 183.01714513001104 0.5 L 183.01714513001104 3.5 L 190.01714513001104 0 L 183.01714513001104 -3.5 L 183.01714513001104 -0.5 L 141.50857256500552 -0.5 Z"/><text text-anchor="middle" pointer-events="none" font-size="8px" fill="#000000" x="111.50857256500552" y="3" font-family="sans-serif">Sem_N_PROP</text></g><g class="relationship" transform="translate(158.1421269971696 242.9739291908088) rotate(360.3416805776609)"><path class="outline" fill="#D4D6D7" stroke="none" d="M 40 0.5 L 66.48719623879276 0.5 L 66.48719623879276 -0.5 L 40 -0.5 Z M 126.48719623879276 0.5 L 152.97439247758552 0.5 L 152.97439247758552 3.5 L 159.97439247758552 0 L 152.97439247758552 -3.5 L 152.97439247758552 -0.5 L 126.48719623879276 -0.5 Z"/><text text-anchor="middle" pointer-events="none" font-size="8px" fill="#000000" x="96.48719623879276" y="3" font-family="sans-serif">Sem_N_PROP</text></g><g class="relationship" transform="translate(476.22103704026654 482.0589115059831) rotate(539.9294067288945)"><path class="outline" fill="#D4D6D7" stroke="none" d="M 38.50762352901147,-10.835724717245364 L 38.766442574113995,-9.869798890956295 A 695.257127570106 695.257127570106 0 0 1 202.39648075176115,-33.36864209511782 L 202.37301353792935,-34.36836670213461 A 696.257127570106 696.257127570106 0 0 0 38.50762352901147,-10.835724717245364 Z M 229.3904981368533,-34.478221634637634 L 229.3751614612467,-33.478339248363454 A 695.257127570106 695.257127570106 0 0 1 393.190881801567,-11.31091280021623 L 392.4380150716185,-8.406916986352748 L 400.0923498222399,-10.038223065980251 L 394.194704108165,-15.18290721870087 L 393.4418373782165,-12.278911404837388 A 696.257127570106 696.257127570106 0 0 0 229.3904981368533,-34.478221634637634"/><text text-anchor="middle" pointer-events="none" font-size="8px" fill="#000000" x="215.88325595024665" y="-31.05435965591994" transform="rotate(180 215.88325595024665 -34.05435965591994)" font-family="sans-serif">LIKES</text></g><g class="relationship" transform="translate(37.40907609901373 482.5995654190827) rotate(359.9294067288945)"><path class="outline" fill="#D4D6D7" stroke="none" d="M 38.50762352901147,-10.835724717245364 L 38.766442574113995,-9.869798890956295 A 695.257127570106 695.257127570106 0 0 1 202.39648075176115,-33.36864209511782 L 202.37301353792935,-34.36836670213461 A 696.257127570106 696.257127570106 0 0 0 38.50762352901147,-10.835724717245364 Z M 229.3904981368533,-34.478221634637634 L 229.3751614612467,-33.478339248363454 A 695.257127570106 695.257127570106 0 0 1 393.190881801567,-11.31091280021623 L 392.4380150716185,-8.406916986352748 L 400.0923498222399,-10.038223065980251 L 394.194704108165,-15.18290721870087 L 393.4418373782165,-12.278911404837388 A 696.257127570106 696.257127570106 0 0 0 229.3904981368533,-34.478221634637634"/><text text-anchor="middle" pointer-events="none" font-size="8px" fill="#000000" x="215.88325595024665" y="-31.05435965591994" font-family="sans-serif">LIKES</text></g><g class="relationship" transform="translate(159.68804783560535 -231.52861406879578) rotate(503.47986116770267)"><path class="outline" fill="#D4D6D7" stroke="none" d="M 40 0.5 L 72.7109141275434 0.5 L 72.7109141275434 -0.5 L 40 -0.5 Z M 132.7109141275434 0.5 L 165.4218282550868 0.5 L 165.4218282550868 3.5 L 172.4218282550868 0 L 165.4218282550868 -3.5 L 165.4218282550868 -0.5 L 132.7109141275434 -0.5 Z"/><text text-anchor="middle" pointer-events="none" font-size="8px" fill="#000000" x="102.7109141275434" y="3" transform="rotate(180 102.7109141275434 0)" font-family="sans-serif">Sem_N_PROP</text></g><g class="relationship" transform="translate(159.68804783560535 -231.52861406879578) rotate(393.3528343020313)"><path class="outline" fill="#D4D6D7" stroke="none" d="M 40 0.5 L 80.7169751716141 0.5 L 80.7169751716141 -0.5 L 40 -0.5 Z M 140.71697517161408 0.5 L 181.4339503432282 0.5 L 181.4339503432282 3.5 L 188.4339503432282 0 L 181.4339503432282 -3.5 L 181.4339503432282 -0.5 L 140.71697517161408 -0.5 Z"/><text text-anchor="middle" pointer-events="none" font-size="8px" fill="#000000" x="110.7169751716141" y="3" font-family="sans-serif">Sem_N_PROP</text></g><g class="relationship" transform="translate(512.7312382576781 16.68352387540949) rotate(340.0045284543203)"><path class="outline" fill="#D4D6D7" stroke="none" d="M 40 0.5 L 66.04199372936803 0.5 L 66.04199372936803 -0.5 L 40 -0.5 Z M 126.04199372936803 0.5 L 152.08398745873606 0.5 L 152.08398745873606 3.5 L 159.08398745873606 0 L 152.08398745873606 -3.5 L 152.08398745873606 -0.5 L 126.04199372936803 -0.5 Z"/><text text-anchor="middle" pointer-events="none" font-size="8px" fill="#000000" x="96.04199372936803" y="3" font-family="sans-serif">Sem_R_PROP</text></g><g class="relationship" transform="translate(511.96563627367004 -104.09752103234712) rotate(375.6726328812045)"><path class="outline" fill="#D4D6D7" stroke="none" d="M 40 0.5 L 64.05123685947993 0.5 L 64.05123685947993 -0.5 L 40 -0.5 Z M 124.05123685947993 0.5 L 148.10247371895986 0.5 L 148.10247371895986 3.5 L 155.10247371895986 0 L 148.10247371895986 -3.5 L 148.10247371895986 -0.5 L 124.05123685947993 -0.5 Z"/><text text-anchor="middle" pointer-events="none" font-size="8px" fill="#000000" x="94.05123685947993" y="3" font-family="sans-serif">Sem_R_PROP</text></g><g class="relationship" transform="translate(160.9245105529712 -104.8376690863563) rotate(359.6677018631616)"><path class="outline" fill="#D4D6D7" stroke="none" d="M 40 0.5 L 61.288886047806955 0.5 L 61.288886047806955 -0.5 L 40 -0.5 Z M 121.28888604780695 0.5 L 142.5777720956139 0.5 L 142.5777720956139 3.5 L 149.5777720956139 0 L 142.5777720956139 -3.5 L 142.5777720956139 -0.5 L 121.28888604780695 -0.5 Z"/><text text-anchor="middle" pointer-events="none" font-size="8px" fill="#000000" x="91.28888604780695" y="3" font-family="sans-serif">Sem_N_PROP</text></g><g class="relationship" transform="translate(160.9245105529712 -104.8376690863563) rotate(180.09249679873824)"><path class="outline" fill="#D4D6D7" stroke="none" d="M 40 0.5 L 52.474504211549444 0.5 L 52.474504211549444 -0.5 L 40 -0.5 Z M 112.47450421154944 0.5 L 124.94900842309889 0.5 L 124.94900842309889 3.5 L 131.9490084230989 0 L 124.94900842309889 -3.5 L 124.94900842309889 -0.5 L 112.47450421154944 -0.5 Z"/><text text-anchor="middle" pointer-events="none" font-size="8px" fill="#000000" x="82.47450421154944" y="3" transform="rotate(180 82.47450421154944 0)" font-family="sans-serif">Sem_N_PROP</text></g></g><g class="layer nodes"><g class="node" transform="translate(160.6972700824743,13.919611023695282)"><circle class="outline" cx="0" cy="0" r="40" fill="#FFC454" stroke="#d7a013" stroke-width="2px"/><text text-anchor="middle" pointer-events="none" font-family="sans-serif" dy="2.5" font-size="40" fill="#604A0E"/><text text-anchor="middle" pointer-events="none" y="5" font-size="10px" fill="#604A0E" font-family="sans-serif"> Sem_Property</text></g><g class="node" transform="translate(353.71881072396513,17.29073895619284)"><circle class="outline" cx="0" cy="0" r="40" fill="#4C8EDA" stroke="#2870c2" stroke-width="2px"/><text text-anchor="middle" pointer-events="none" font-family="sans-serif" dy="2.5" font-size="40" fill="#FFFFFF"/><text text-anchor="middle" pointer-events="none" y="5" font-size="10px" fill="#FFFFFF" font-family="sans-serif"> scalartype</text></g><g class="node" transform="translate(358.1129636657632,244.1664596273555)"><circle class="outline" cx="0" cy="0" r="40" fill="#4C8EDA" stroke="#2870c2" stroke-width="2px"/><text text-anchor="middle" pointer-events="none" font-family="sans-serif" dy="2.5" font-size="40" fill="#FFFFFF"/><text text-anchor="middle" pointer-events="none" y="5" font-size="10px" fill="#FFFFFF" font-family="sans-serif"> name</text></g><g class="node" transform="translate(158.1421269971696,242.9739291908088)"><circle class="outline" cx="0" cy="0" r="40" fill="#FFC454" stroke="#d7a013" stroke-width="2px"/><text text-anchor="middle" pointer-events="none" font-family="sans-serif" dy="2.5" font-size="40" fill="#604A0E"/><text text-anchor="middle" pointer-events="none" y="5" font-size="10px" fill="#604A0E" font-family="sans-serif"> Person</text></g><g class="node" transform="translate(358.63012931900823,354.3294890055639)"><circle class="outline" cx="0" cy="0" r="40" fill="#4C8EDA" stroke="#2870c2" stroke-width="2px"/><text text-anchor="middle" pointer-events="none" font-family="sans-serif" dy="2.5" font-size="40" fill="#FFFFFF"/><text text-anchor="middle" pointer-events="none" y="5" font-size="10px" fill="#FFFFFF" font-family="sans-serif"> firstname</text></g><g class="node" transform="translate(358.92776294483554,130.7553235549699)"><circle class="outline" cx="0" cy="0" r="40" fill="#4C8EDA" stroke="#2870c2" stroke-width="2px"/><text text-anchor="middle" pointer-events="none" font-family="sans-serif" dy="2.5" font-size="40" fill="#FFFFFF"/><text text-anchor="middle" pointer-events="none" y="5" font-size="10px" fill="#FFFFFF" font-family="sans-serif"> lastname</text></g><g class="node" transform="translate(515.5665981255124,131.30991916633673)"><circle class="outline" cx="0" cy="0" r="40" fill="#8DCC93" stroke="#5db665" stroke-width="2px"/><text text-anchor="middle" pointer-events="none" font-family="sans-serif" dy="2.5" font-size="40" fill="#604A0E"/><text text-anchor="middle" pointer-events="none" y="5" font-size="10px" fill="#604A0E" font-family="sans-serif"> LIKES</text></g><g class="node" transform="translate(476.22103704026654,482.0589115059831)"><circle class="outline" cx="0" cy="0" r="40" fill="#AD62CE" stroke="#9453B1" stroke-width="2px"/><text text-anchor="middle" pointer-events="none" font-family="sans-serif" dy="2.5" font-size="40" fill="#FFFFFF"/><text text-anchor="middle" pointer-events="none" y="5" font-size="10px" fill="#FFFFFF" font-family="sans-serif"> Bob</text></g><g class="node" transform="translate(37.40907609901373,482.5995654190827)"><circle class="outline" cx="0" cy="0" r="40" fill="#AD62CE" stroke="#9453B1" stroke-width="2px"/><text text-anchor="middle" pointer-events="none" font-family="sans-serif" dy="2.5" font-size="40" fill="#FFFFFF"/><text text-anchor="middle" pointer-events="none" y="5" font-size="10px" fill="#FFFFFF" font-family="sans-serif"> Alice Alison</text></g><g class="node" transform="translate(159.68804783560535,-231.52861406879578)"><circle class="outline" cx="0" cy="0" r="40" fill="#FFC454" stroke="#d7a013" stroke-width="2px"/><text text-anchor="middle" pointer-events="none" font-family="sans-serif" dy="2.5" font-size="40" fill="#604A0E"/><text text-anchor="middle" pointer-events="none" y="5" font-size="10px" fill="#604A0E" font-family="sans-serif"> Sem_Label</text></g><g class="node" transform="translate(350.49909429300595,-105.93715648013591)"><circle class="outline" cx="0" cy="0" r="40" fill="#4C8EDA" stroke="#2870c2" stroke-width="2px"/><text text-anchor="middle" pointer-events="none" font-family="sans-serif" dy="2.5" font-size="40" fill="#FFFFFF"/><text text-anchor="middle" pointer-events="none" y="5" font-size="10px" fill="#FFFFFF" font-family="sans-serif"> description</text></g><g class="node" transform="translate(-11.024273803217426,-105.11525892023278)"><circle class="outline" cx="0" cy="0" r="40" fill="#4C8EDA" stroke="#2870c2" stroke-width="2px"/><text text-anchor="middle" pointer-events="none" font-family="sans-serif" dy="2.5" font-size="40" fill="#FFFFFF"/><text text-anchor="middle" pointer-events="none" y="5" font-size="10px" fill="#FFFFFF" font-family="sans-serif"> techname</text></g><g class="node" transform="translate(512.7312382576781,16.68352387540949)"><circle class="outline" cx="0" cy="0" r="40" fill="#8DCC93" stroke="#5db665" stroke-width="2px"/><text text-anchor="middle" pointer-events="none" font-family="sans-serif" dy="2.5" font-size="40" fill="#604A0E"/><text text-anchor="middle" pointer-events="none" y="5" font-size="10px" fill="#604A0E" font-family="sans-serif"> Sem_N_PROP</text></g><g class="node" transform="translate(511.96563627367004,-104.09752103234712)"><circle class="outline" cx="0" cy="0" r="40" fill="#8DCC93" stroke="#5db665" stroke-width="2px"/><text text-anchor="middle" pointer-events="none" font-family="sans-serif" dy="2.5" font-size="40" fill="#604A0E"/><text text-anchor="middle" pointer-events="none" y="5" font-size="10px" fill="#604A0E" font-family="sans-serif"> Sem_R_PROP</text></g><g class="node" transform="translate(699.8143732540307,-51.39242387713156)"><circle class="outline" cx="0" cy="0" r="40" fill="#4C8EDA" stroke="#2870c2" stroke-width="2px"/><text text-anchor="middle" pointer-events="none" font-family="sans-serif" dy="2.5" font-size="40" fill="#FFFFFF"/><text text-anchor="middle" pointer-events="none" y="5" font-size="10px" fill="#FFFFFF" font-family="sans-serif"> arity</text></g><g class="node" transform="translate(160.9245105529712,-104.8376690863563)"><circle class="outline" cx="0" cy="0" r="40" fill="#FFC454" stroke="#d7a013" stroke-width="2px"/><text text-anchor="middle" pointer-events="none" font-family="sans-serif" dy="2.5" font-size="40" fill="#604A0E"/><text text-anchor="middle" pointer-events="none" y="5" font-size="10px" fill="#604A0E" font-family="sans-serif"> Sem_Relation</text></g></g></svg>