<svg xmlns="http://www.w3.org/2000/svg" width="788.1651611328125" height="938.7589721679688" viewBox="-569.9963989257812 -193.978759765625 788.1651611328125 938.7589721679688"><title>Neo4j Graph Visualization</title><desc>Created using Neo4j (http://www.neo4j.com/)</desc><g class="layer relationships"><g class="relationship" transform="translate(-216.89955410211644 448.41089276999276) rotate(334.7548395592994)"><path class="outline" fill="#A5ABB6" stroke="none" d="M 32.5 0.5 L 61.03686363174653 0.5 L 61.03686363174653 -0.5 L 32.5 -0.5 Z M 93.03686363174653 0.5 L 121.57372726349305 0.5 L 121.57372726349305 3.5 L 128.57372726349305 0 L 121.57372726349305 -3.5 L 121.57372726349305 -0.5 L 93.03686363174653 -0.5 Z"/><text text-anchor="middle" pointer-events="none" font-size="8px" fill="#000000" x="77.03686363174653" y="3" font-family="sans-serif">_PROP</text></g><g class="relationship" transform="translate(-216.89955410211644 448.41089276999276) rotate(364.1935615314501)"><path class="outline" fill="#A5ABB6" stroke="none" d="M 32.5 0.5 L 52.98443521835692 0.5 L 52.98443521835692 -0.5 L 32.5 -0.5 Z M 84.98443521835692 0.5 L 105.46887043671384 0.5 L 105.46887043671384 3.5 L 112.46887043671384 0 L 105.46887043671384 -3.5 L 105.46887043671384 -0.5 L 84.98443521835692 -0.5 Z"/><text text-anchor="middle" pointer-events="none" font-size="8px" fill="#000000" x="68.98443521835692" y="3" font-family="sans-serif">_PROP</text></g><g class="relationship" transform="translate(-216.89955410211644 448.41089276999276) rotate(391.5314405986733)"><path class="outline" fill="#A5ABB6" stroke="none" d="M 32.5 0.5 L 64.86758888167878 0.5 L 64.86758888167878 -0.5 L 32.5 -0.5 Z M 96.86758888167878 0.5 L 129.23517776335757 0.5 L 129.23517776335757 3.5 L 136.23517776335757 0 L 129.23517776335757 -3.5 L 129.23517776335757 -0.5 L 96.86758888167878 -0.5 Z"/><text text-anchor="middle" pointer-events="none" font-size="8px" fill="#000000" x="80.86758888167878" y="3" font-family="sans-serif">_PROP</text></g><g class="relationship" transform="translate(-218.37247590302877 707.4257189204416) rotate(360.3254582177724)"><path class="outline" fill="#A5ABB6" stroke="none" d="M 31.26317983184346,-8.894581878976458 L 31.52199887694598,-7.92865605268739 A 162.35197218554714 162.35197218554714 0 0 1 58.23491614466944,-12.737473874145053 L 58.140634166213665,-13.733019407276743 A 163.35197218554714 163.35197218554714 0 0 0 31.26317983184346,-8.894581878976458 Z M 85.19072683877656,-14.044781512571092 L 85.11941490177082,-13.047327449648662 A 162.35197218554714 162.35197218554714 0 0 1 111.93606835499716,-8.85545729877672 L 111.2266044683017,-5.940554042496166 L 118.85575326743437,-7.685858772534084 L 112.88202020392444,-12.741994973817459 L 112.17255631722898,-9.827091717536906 A 163.35197218554714 163.35197218554714 0 0 0 85.19072683877656,-14.044781512571092"/><text text-anchor="middle" pointer-events="none" font-size="8px" fill="#000000" x="71.66497803358034" y="-10.94985029610163" font-family="sans-serif">LIKES</text></g><g class="relationship" transform="translate(6.059526129845011 102.35754535185723) rotate(194.91076076433598)"><path class="outline" fill="#A5ABB6" stroke="none" d="M 32.5 0.5 L 70.19626865326131 0.5 L 70.19626865326131 -0.5 L 32.5 -0.5 Z M 114.19626865326131 0.5 L 151.89253730652263 0.5 L 151.89253730652263 3.5 L 158.89253730652263 0 L 151.89253730652263 -3.5 L 151.89253730652263 -0.5 L 114.19626865326131 -0.5 Z"/><text text-anchor="middle" pointer-events="none" font-size="8px" fill="#000000" x="92.19626865326131" y="3" transform="rotate(180 92.19626865326131 0)" font-family="sans-serif">_SOURCE</text></g><g class="relationship" transform="translate(-67.94103096951787 708.2802264768436) rotate(180.3254582177724)"><path class="outline" fill="#A5ABB6" stroke="none" d="M 31.26317983184346,-8.894581878976458 L 31.52199887694598,-7.92865605268739 A 162.35197218554714 162.35197218554714 0 0 1 58.23491614466944,-12.737473874145053 L 58.140634166213665,-13.733019407276743 A 163.35197218554714 163.35197218554714 0 0 0 31.26317983184346,-8.894581878976458 Z M 85.19072683877656,-14.044781512571092 L 85.11941490177082,-13.047327449648662 A 162.35197218554714 162.35197218554714 0 0 1 111.93606835499716,-8.85545729877672 L 111.2266044683017,-5.940554042496166 L 118.85575326743437,-7.685858772534084 L 112.88202020392444,-12.741994973817459 L 112.17255631722898,-9.827091717536906 A 163.35197218554714 163.35197218554714 0 0 0 85.19072683877656,-14.044781512571092"/><text text-anchor="middle" pointer-events="none" font-size="8px" fill="#000000" x="71.66497803358034" y="-10.94985029610163" transform="rotate(180 71.66497803358034 -13.94985029610163)" font-family="sans-serif">LIKES</text></g><g class="relationship" transform="translate(10.562763355436658 3.6935253967716903) rotate(525.3808407959363)"><path class="outline" fill="#A5ABB6" stroke="none" d="M 32.5 0.5 L 72.39494635769252 0.5 L 72.39494635769252 -0.5 L 32.5 -0.5 Z M 116.39494635769252 0.5 L 156.28989271538504 0.5 L 156.28989271538504 3.5 L 163.28989271538504 0 L 156.28989271538504 -3.5 L 156.28989271538504 -0.5 L 116.39494635769252 -0.5 Z"/><text text-anchor="middle" pointer-events="none" font-size="8px" fill="#000000" x="94.39494635769252" y="3" transform="rotate(180 94.39494635769252 0)" font-family="sans-serif">_SOURCE</text></g><g class="relationship" transform="translate(-402.01976281646193 51.23192173476407) rotate(390.92015738032796)"><path class="outline" fill="#A5ABB6" stroke="none" d="M 32.5 0.5 L 169.05716804996067 0.5 L 169.05716804996067 -0.5 L 32.5 -0.5 Z M 210.05716804996067 0.5 L 346.61433609992133 0.5 L 346.61433609992133 3.5 L 353.61433609992133 0 L 346.61433609992133 -3.5 L 346.61433609992133 -0.5 L 210.05716804996067 -0.5 Z"/><text text-anchor="middle" pointer-events="none" font-size="8px" fill="#000000" x="189.55716804996067" y="3" font-family="sans-serif">_TARGET</text></g><g class="relationship" transform="translate(-402.01976281646193 51.23192173476407) rotate(327.54197493154345)"><path class="outline" fill="#A5ABB6" stroke="none" d="M 32.5 0.5 L 168.94553947550386 0.5 L 168.94553947550386 -0.5 L 32.5 -0.5 Z M 212.94553947550386 0.5 L 349.3910789510077 0.5 L 349.3910789510077 3.5 L 356.3910789510077 0 L 349.3910789510077 -3.5 L 349.3910789510077 -0.5 L 212.94553947550386 -0.5 Z"/><text text-anchor="middle" pointer-events="none" font-size="8px" fill="#000000" x="190.94553947550386" y="3" font-family="sans-serif">_SOURCE</text></g><g class="relationship" transform="translate(-402.01976281646193 51.23192173476407) rotate(538.5846116110852)"><path class="outline" fill="#A5ABB6" stroke="none" d="M 32.5 0.5 L 46.25838702897053 0.5 L 46.25838702897053 -0.5 L 32.5 -0.5 Z M 78.25838702897053 0.5 L 92.01677405794106 0.5 L 92.01677405794106 3.5 L 99.01677405794106 0 L 92.01677405794106 -3.5 L 92.01677405794106 -0.5 L 78.25838702897053 -0.5 Z"/><text text-anchor="middle" pointer-events="none" font-size="8px" fill="#000000" x="62.25838702897053" y="3" transform="rotate(180 62.25838702897053 0)" font-family="sans-serif">_PROP</text></g><g class="relationship" transform="translate(-73.87936382696284 -157.47876279933277) rotate(539.8621077069236)"><path class="outline" fill="#A5ABB6" stroke="none" d="M 32.5 0.5 L 88.19566404694908 0.5 L 88.19566404694908 -0.5 L 32.5 -0.5 Z M 120.19566404694908 0.5 L 175.89132809389815 0.5 L 175.89132809389815 3.5 L 182.89132809389815 0 L 175.89132809389815 -3.5 L 175.89132809389815 -0.5 L 120.19566404694908 -0.5 Z"/><text text-anchor="middle" pointer-events="none" font-size="8px" fill="#000000" x="104.19566404694908" y="3" transform="rotate(180 104.19566404694908 0)" font-family="sans-serif">_PROP</text></g><g class="relationship" transform="translate(-73.87936382696284 -157.47876279933277) rotate(399.55414879201555)"><path class="outline" fill="#A5ABB6" stroke="none" d="M 32.5 0.5 L 146.22013725637174 0.5 L 146.22013725637174 -0.5 L 32.5 -0.5 Z M 178.22013725637174 0.5 L 291.9402745127435 0.5 L 291.9402745127435 3.5 L 298.9402745127435 0 L 291.9402745127435 -3.5 L 291.9402745127435 -0.5 L 178.22013725637174 -0.5 Z"/><text text-anchor="middle" pointer-events="none" font-size="8px" fill="#000000" x="162.22013725637174" y="3" font-family="sans-serif">_PROP</text></g><g class="relationship" transform="translate(-73.87936382696284 -157.47876279933277) rotate(496.24563908271375)"><path class="outline" fill="#A5ABB6" stroke="none" d="M 32.5 0.5 L 132.19559435980926 0.5 L 132.19559435980926 -0.5 L 32.5 -0.5 Z M 164.19559435980926 0.5 L 263.8911887196185 0.5 L 263.8911887196185 3.5 L 270.8911887196185 0 L 263.8911887196185 -3.5 L 263.8911887196185 -0.5 L 164.19559435980926 -0.5 Z"/><text text-anchor="middle" pointer-events="none" font-size="8px" fill="#000000" x="148.19559435980926" y="3" transform="rotate(180 148.19559435980926 0)" font-family="sans-serif">_PROP</text></g><g class="relationship" transform="translate(-382.95822533385365 451.3609783917301) rotate(358.9822291399869)"><path class="outline" fill="#A5ABB6" stroke="none" d="M 31.26317983184346,8.894581878976458 L 31.52199887694598,7.92865605268739 A 193.1973030660361 193.1973030660361 0 0 0 57.61839244513433,13.026846225900954 L 57.4946497864722,14.019160568449337 A 194.1973030660361 194.1973030660361 0 0 1 31.26317983184346,8.894581878976458 Z M 101.51102625910636,14.48052948708633 L 101.40811089637637,13.485839370459956 A 193.1973030660361 193.1973030660361 0 0 0 127.60563504875198,8.935781283608122 L 126.89008942863343,6.022364995892072 L 134.5228639901092,7.751744217950867 L 128.5596958755767,12.82033633389619 L 127.84415025545816,9.90692004618014 A 194.1973030660361 194.1973030660361 0 0 1 101.51102625910636,14.48052948708633"/><text text-anchor="middle" pointer-events="none" font-size="8px" fill="#000000" x="79.49496402415946" y="18.001054903498755" font-family="sans-serif">_SOURCE</text></g><g class="relationship" transform="translate(-382.95822533385365 451.3609783917301) rotate(358.9822291399869)"><path class="outline" fill="#A5ABB6" stroke="none" d="M 31.26317983184346,-8.894581878976458 L 31.52199887694598,-7.92865605268739 A 193.1973030660361 193.1973030660361 0 0 1 59.103723700678,-13.206230742594187 L 58.987669199313984,-14.199473589391033 A 194.1973030660361 194.1973030660361 0 0 0 31.26317983184346,-8.894581878976458 Z M 100.01455529904632,-14.62950739934459 L 99.91934586701895,-13.634050135544157 A 193.1973030660361 193.1973030660361 0 0 1 127.60563504875198,-8.935781283608122 L 126.89008942863343,-6.022364995892072 L 134.5228639901092,-7.751744217950867 L 128.5596958755767,-12.82033633389619 L 127.84415025545816,-9.90692004618014 A 194.1973030660361 194.1973030660361 0 0 0 100.01455529904632,-14.62950739934459"/><text text-anchor="middle" pointer-events="none" font-size="8px" fill="#000000" x="79.4949640241594" y="-12.001054903498755" font-family="sans-serif">_TARGET</text></g><g class="relationship" transform="translate(-178.88839763463847 53.10951156536521) rotate(313.32678032354806)"><path class="outline" fill="#A5ABB6" stroke="none" d="M 32.5 0.5 L 56.43812379694177 0.5 L 56.43812379694177 -0.5 L 32.5 -0.5 Z M 88.43812379694177 0.5 L 112.37624759388353 0.5 L 112.37624759388353 3.5 L 119.37624759388353 0 L 112.37624759388353 -3.5 L 112.37624759388353 -0.5 L 88.43812379694177 -0.5 Z"/><text text-anchor="middle" pointer-events="none" font-size="8px" fill="#000000" x="72.43812379694177" y="3" font-family="sans-serif">_PROP</text></g><g class="relationship" transform="translate(-178.88839763463847 53.10951156536521) rotate(360.07552493693726)"><path class="outline" fill="#A5ABB6" stroke="none" d="M 32.5 0.5 L 160.77872706127295 0.5 L 160.77872706127295 -0.5 L 32.5 -0.5 Z M 192.77872706127295 0.5 L 321.0574541225459 0.5 L 321.0574541225459 3.5 L 328.0574541225459 0 L 321.0574541225459 -3.5 L 321.0574541225459 -0.5 L 192.77872706127295 -0.5 Z"/><text text-anchor="middle" pointer-events="none" font-size="8px" fill="#000000" x="176.77872706127295" y="3" font-family="sans-serif">_PROP</text></g><g class="relationship" transform="translate(-178.88839763463847 53.10951156536521) rotate(404.1906649423427)"><path class="outline" fill="#A5ABB6" stroke="none" d="M 32.5 0.5 L 52.283342628664556 0.5 L 52.283342628664556 -0.5 L 32.5 -0.5 Z M 84.28334262866456 0.5 L 104.06668525732911 0.5 L 104.06668525732911 3.5 L 111.06668525732911 0 L 104.06668525732911 -3.5 L 104.06668525732911 -0.5 L 84.28334262866456 -0.5 Z"/><text text-anchor="middle" pointer-events="none" font-size="8px" fill="#000000" x="68.28334262866456" y="3" font-family="sans-serif">_PROP</text></g><g class="relationship" transform="translate(-178.88839763463847 53.10951156536521) rotate(180.38785640398748)"><path class="outline" fill="#A5ABB6" stroke="none" d="M 32.5 0.5 L 37.56823675321187 0.5 L 37.56823675321187 -0.5 L 32.5 -0.5 Z M 69.56823675321186 0.5 L 74.63647350642374 0.5 L 74.63647350642374 3.5 L 81.63647350642374 0 L 74.63647350642374 -3.5 L 74.63647350642374 -0.5 L 69.56823675321186 -0.5 Z"/><text text-anchor="middle" pointer-events="none" font-size="8px" fill="#000000" x="53.56823675321187" y="3" transform="rotate(180 53.56823675321187 0)" font-family="sans-serif">_PROP</text></g><g class="relationship" transform="translate(-70.77838131181741 249.63410851902688) rotate(221.59709895983622)"><path class="outline" fill="#A5ABB6" stroke="none" d="M 32.5 0.5 L 129.0921718505474 0.5 L 129.0921718505474 -0.5 L 32.5 -0.5 Z M 161.0921718505474 0.5 L 257.6843437010948 0.5 L 257.6843437010948 3.5 L 264.6843437010948 0 L 257.6843437010948 -3.5 L 257.6843437010948 -0.5 L 161.0921718505474 -0.5 Z"/><text text-anchor="middle" pointer-events="none" font-size="8px" fill="#000000" x="145.0921718505474" y="3" transform="rotate(180 145.0921718505474 0)" font-family="sans-serif">_PROP</text></g><g class="relationship" transform="translate(-70.77838131181741 249.63410851902688) rotate(539.3674302830892)"><path class="outline" fill="#A5ABB6" stroke="none" d="M 32.5 0.5 L 88.37366515193978 0.5 L 88.37366515193978 -0.5 L 32.5 -0.5 Z M 120.37366515193978 0.5 L 176.24733030387955 0.5 L 176.24733030387955 3.5 L 183.24733030387955 0 L 176.24733030387955 -3.5 L 176.24733030387955 -0.5 L 120.37366515193978 -0.5 Z"/><text text-anchor="middle" pointer-events="none" font-size="8px" fill="#000000" x="104.37366515193978" y="3" transform="rotate(180 104.37366515193978 0)" font-family="sans-serif">_PROP</text></g><g class="relationship" transform="translate(-70.77838131181741 249.63410851902688) rotate(322.16724404958387)"><path class="outline" fill="#A5ABB6" stroke="none" d="M 32.5 0.5 L 140.31621364186182 0.5 L 140.31621364186182 -0.5 L 32.5 -0.5 Z M 172.31621364186182 0.5 L 280.13242728372364 0.5 L 280.13242728372364 3.5 L 287.13242728372364 0 L 280.13242728372364 -3.5 L 280.13242728372364 -0.5 L 172.31621364186182 -0.5 Z"/><text text-anchor="middle" pointer-events="none" font-size="8px" fill="#000000" x="156.31621364186182" y="3" font-family="sans-serif">_PROP</text></g></g><g class="layer nodes"><g class="node" transform="translate(-72.31880869391313,459.01190465117736)"><circle class="outline" cx="0" cy="0" r="32.5" fill="#4C8EDA" stroke="#2870c2" stroke-width="2px"/><text text-anchor="middle" pointer-events="none" font-family="sans-serif" dy="2.03125" font-size="32.5" fill="#FFFFFF"/><text text-anchor="middle" pointer-events="none" y="5" font-size="10px" fill="#FFFFFF" font-family="sans-serif"> lastname</text></g><g class="node" transform="translate(-533.4964100253203,54.480474847292)"><circle class="outline" cx="0" cy="0" r="32.5" fill="#4C8EDA" stroke="#2870c2" stroke-width="2px"/><text text-anchor="middle" pointer-events="none" font-family="sans-serif" dy="2.03125" font-size="32.5" fill="#FFFFFF"/><text text-anchor="middle" pointer-events="none" y="5" font-size="10px" fill="#FFFFFF" font-family="sans-serif"> _arity</text></g><g class="node" transform="translate(-216.89955410211644,448.41089276999276)"><circle class="outline" cx="0" cy="0" r="32.5" fill="#FFC454" stroke="#d7a013" stroke-width="2px"/><text text-anchor="middle" pointer-events="none" font-family="sans-serif" dy="2.03125" font-size="32.5" fill="#604A0E"/><text text-anchor="middle" pointer-events="none" y="5" font-size="10px" fill="#604A0E" font-family="sans-serif"> Person</text></g><g class="node" transform="translate(-286.51256292369123,252.0160021997653)"><circle class="outline" cx="0" cy="0" r="32.5" fill="#4C8EDA" stroke="#2870c2" stroke-width="2px"/><text text-anchor="middle" pointer-events="none" font-family="sans-serif" dy="2.03125" font-size="32.5" fill="#FFFFFF"/><text text-anchor="middle" pointer-events="none" y="5" font-size="10px" fill="#FFFFFF" font-family="sans-serif"> _scalartype</text></g><g class="node" transform="translate(-74.67722813350717,-57.37318723587288)"><circle class="outline" cx="0" cy="0" r="32.5" fill="#4C8EDA" stroke="#2870c2" stroke-width="2px"/><text text-anchor="middle" pointer-events="none" font-family="sans-serif" dy="2.03125" font-size="32.5" fill="#FFFFFF"/><text text-anchor="middle" pointer-events="none" y="5" font-size="10px" fill="#FFFFFF" font-family="sans-serif"> _sourcearity</text></g><g class="node" transform="translate(-289.27006813901465,-156.9603864770195)"><circle class="outline" cx="0" cy="0" r="32.5" fill="#4C8EDA" stroke="#2870c2" stroke-width="2px"/><text text-anchor="middle" pointer-events="none" font-family="sans-serif" dy="2.03125" font-size="32.5" fill="#FFFFFF"/><text text-anchor="middle" pointer-events="none" y="5" font-size="10px" fill="#FFFFFF" font-family="sans-serif"> _schemana…</text></g><g class="node" transform="translate(-75.94761207359,153.18242390357605)"><circle class="outline" cx="0" cy="0" r="32.5" fill="#4C8EDA" stroke="#2870c2" stroke-width="2px"/><text text-anchor="middle" pointer-events="none" font-family="sans-serif" dy="2.03125" font-size="32.5" fill="#FFFFFF"/><text text-anchor="middle" pointer-events="none" y="5" font-size="10px" fill="#FFFFFF" font-family="sans-serif"> _targetarity</text></g><g class="node" transform="translate(-73.07756528549459,536.653715411063)"><circle class="outline" cx="0" cy="0" r="32.5" fill="#4C8EDA" stroke="#2870c2" stroke-width="2px"/><text text-anchor="middle" pointer-events="none" font-family="sans-serif" dy="2.03125" font-size="32.5" fill="#FFFFFF"/><text text-anchor="middle" pointer-events="none" y="5" font-size="10px" fill="#FFFFFF" font-family="sans-serif"> name</text></g><g class="node" transform="translate(-218.37247590302877,707.4257189204416)"><circle class="outline" cx="0" cy="0" r="32.5" fill="#569480" stroke="#447666" stroke-width="2px"/><text text-anchor="middle" pointer-events="none" font-family="sans-serif" dy="2.03125" font-size="32.5" fill="#FFFFFF"/><text text-anchor="middle" pointer-events="none" y="5" font-size="10px" fill="#FFFFFF" font-family="sans-serif"> Alice Alison</text></g><g class="node" transform="translate(6.059526129845011,102.35754535185723)"><circle class="outline" cx="0" cy="0" r="32.5" fill="#DA7194" stroke="#cc3c6c" stroke-width="2px"/><text text-anchor="middle" pointer-events="none" font-family="sans-serif" dy="2.03125" font-size="32.5" fill="#FFFFFF"/><text text-anchor="middle" pointer-events="none" y="5" font-size="10px" fill="#FFFFFF" font-family="sans-serif"> _TARGET</text></g><g class="node" transform="translate(-71.20978960824579,379.7141815221124)"><circle class="outline" cx="0" cy="0" r="32.5" fill="#4C8EDA" stroke="#2870c2" stroke-width="2px"/><text text-anchor="middle" pointer-events="none" font-family="sans-serif" dy="2.03125" font-size="32.5" fill="#FFFFFF"/><text text-anchor="middle" pointer-events="none" y="5" font-size="10px" fill="#FFFFFF" font-family="sans-serif"> firstname</text></g><g class="node" transform="translate(-67.94103096951787,708.2802264768436)"><circle class="outline" cx="0" cy="0" r="32.5" fill="#569480" stroke="#447666" stroke-width="2px"/><text text-anchor="middle" pointer-events="none" font-family="sans-serif" dy="2.03125" font-size="32.5" fill="#FFFFFF"/><text text-anchor="middle" pointer-events="none" y="5" font-size="10px" fill="#FFFFFF" font-family="sans-serif"> Bob</text></g><g class="node" transform="translate(-293.02225603405634,52.33688530112087)"><circle class="outline" cx="0" cy="0" r="32.5" fill="#4C8EDA" stroke="#2870c2" stroke-width="2px"/><text text-anchor="middle" pointer-events="none" font-family="sans-serif" dy="2.03125" font-size="32.5" fill="#FFFFFF"/><text text-anchor="middle" pointer-events="none" y="5" font-size="10px" fill="#FFFFFF" font-family="sans-serif"> description</text></g><g class="node" transform="translate(10.562763355436658,3.6935253967716903)"><circle class="outline" cx="0" cy="0" r="32.5" fill="#DA7194" stroke="#cc3c6c" stroke-width="2px"/><text text-anchor="middle" pointer-events="none" font-family="sans-serif" dy="2.03125" font-size="32.5" fill="#FFFFFF"/><text text-anchor="middle" pointer-events="none" y="5" font-size="10px" fill="#FFFFFF" font-family="sans-serif"> _SOURCE</text></g><g class="node" transform="translate(-402.01976281646193,51.23192173476407)"><circle class="outline" cx="0" cy="0" r="32.5" fill="#DA7194" stroke="#cc3c6c" stroke-width="2px"/><text text-anchor="middle" pointer-events="none" font-family="sans-serif" dy="2.03125" font-size="32.5" fill="#FFFFFF"/><text text-anchor="middle" pointer-events="none" y="5" font-size="10px" fill="#FFFFFF" font-family="sans-serif"> _PROP</text></g><g class="node" transform="translate(-73.87936382696284,-157.47876279933277)"><circle class="outline" cx="0" cy="0" r="32.5" fill="#FFC454" stroke="#d7a013" stroke-width="2px"/><text text-anchor="middle" pointer-events="none" font-family="sans-serif" dy="2.03125" font-size="32.5" fill="#604A0E"/><text text-anchor="middle" pointer-events="none" y="5" font-size="10px" fill="#604A0E" font-family="sans-serif"> _Schema</text></g><g class="node" transform="translate(-382.95822533385365,451.3609783917301)"><circle class="outline" cx="0" cy="0" r="32.5" fill="#DA7194" stroke="#cc3c6c" stroke-width="2px"/><text text-anchor="middle" pointer-events="none" font-family="sans-serif" dy="2.03125" font-size="32.5" fill="#FFFFFF"/><text text-anchor="middle" pointer-events="none" y="5" font-size="10px" fill="#FFFFFF" font-family="sans-serif"> LIKES</text></g><g class="node" transform="translate(181.6687432459726,53.58478341488746)"><circle class="outline" cx="0" cy="0" r="32.5" fill="#4C8EDA" stroke="#2870c2" stroke-width="2px"/><text text-anchor="middle" pointer-events="none" font-family="sans-serif" dy="2.03125" font-size="32.5" fill="#FFFFFF"/><text text-anchor="middle" pointer-events="none" y="5" font-size="10px" fill="#FFFFFF" font-family="sans-serif"> _techname</text></g><g class="node" transform="translate(-178.88839763463847,53.10951156536521)"><circle class="outline" cx="0" cy="0" r="32.5" fill="#FFC454" stroke="#d7a013" stroke-width="2px"/><text text-anchor="middle" pointer-events="none" font-family="sans-serif" dy="2.03125" font-size="32.5" fill="#604A0E"/><text text-anchor="middle" pointer-events="none" y="5" font-size="10px" fill="#604A0E" font-family="sans-serif"> _Relation</text></g><g class="node" transform="translate(-70.77838131181741,249.63410851902688)"><circle class="outline" cx="0" cy="0" r="32.5" fill="#FFC454" stroke="#d7a013" stroke-width="2px"/><text text-anchor="middle" pointer-events="none" font-family="sans-serif" dy="2.03125" font-size="32.5" fill="#604A0E"/><text text-anchor="middle" pointer-events="none" y="5" font-size="10px" fill="#604A0E" font-family="sans-serif"> _Property</text></g></g></svg>