<svg xmlns="http://www.w3.org/2000/svg" width="1102.673828125" height="540.335693359375" viewBox="-555.9512329101562 -142.78054809570312 1102.673828125 540.335693359375"><title>Neo4j Graph Visualization</title><desc>Created using Neo4j (http://www.neo4j.com/)</desc><g class="layer relationships"><g class="relationship" transform="translate(-398.4067821377155 124.37943495718903) rotate(401.8283538084587)"><path class="outline" fill="#A5ABB6" stroke="none" d="M 32.5 0.5 L 150.8456382993547 0.5 L 150.8456382993547 -0.5 L 32.5 -0.5 Z M 194.8456382993547 0.5 L 313.1912765987094 0.5 L 313.1912765987094 3.5 L 320.1912765987094 0 L 313.1912765987094 -3.5 L 313.1912765987094 -0.5 L 194.8456382993547 -0.5 Z"/><text text-anchor="middle" pointer-events="none" font-size="8px" fill="#000000" x="172.8456382993547" y="3" font-family="sans-serif">_SOURCE</text></g><g class="relationship" transform="translate(-398.4067821377155 124.37943495718903) rotate(317.74883437383744)"><path class="outline" fill="#A5ABB6" stroke="none" d="M 32.5 0.5 L 147.5245487682401 0.5 L 147.5245487682401 -0.5 L 32.5 -0.5 Z M 188.5245487682401 0.5 L 303.5490975364802 0.5 L 303.5490975364802 3.5 L 310.5490975364802 0 L 303.5490975364802 -3.5 L 303.5490975364802 -0.5 L 188.5245487682401 -0.5 Z"/><text text-anchor="middle" pointer-events="none" font-size="8px" fill="#000000" x="168.0245487682401" y="3" font-family="sans-serif">_TARGET</text></g><g class="relationship" transform="translate(-398.4067821377155 124.37943495718903) rotate(180.15406067472696)"><path class="outline" fill="#A5ABB6" stroke="none" d="M 32.5 0.5 L 41.02244844824915 0.5 L 41.02244844824915 -0.5 L 32.5 -0.5 Z M 73.02244844824915 0.5 L 81.5448968964983 0.5 L 81.5448968964983 3.5 L 88.5448968964983 0 L 81.5448968964983 -3.5 L 81.5448968964983 -0.5 L 73.02244844824915 -0.5 Z"/><text text-anchor="middle" pointer-events="none" font-size="8px" fill="#000000" x="57.02244844824915" y="3" transform="rotate(180 57.02244844824915 0)" font-family="sans-serif">_PROP</text></g><g class="relationship" transform="translate(-205.3782440690878 129.1354493645583) rotate(302.42598926023237)"><path class="outline" fill="#A5ABB6" stroke="none" d="M 32.5 0.5 L 46.41270131727974 0.5 L 46.41270131727974 -0.5 L 32.5 -0.5 Z M 78.41270131727974 0.5 L 92.32540263455948 0.5 L 92.32540263455948 3.5 L 99.32540263455948 0 L 92.32540263455948 -3.5 L 92.32540263455948 -0.5 L 78.41270131727974 -0.5 Z"/><text text-anchor="middle" pointer-events="none" font-size="8px" fill="#000000" x="62.41270131727974" y="3" font-family="sans-serif">_PROP</text></g><g class="relationship" transform="translate(-205.3782440690878 129.1354493645583) rotate(360.05424301708246)"><path class="outline" fill="#A5ABB6" stroke="none" d="M 32.5 0.5 L 117.88077543967617 0.5 L 117.88077543967617 -0.5 L 32.5 -0.5 Z M 149.88077543967617 0.5 L 235.26155087935234 0.5 L 235.26155087935234 3.5 L 242.26155087935234 0 L 235.26155087935234 -3.5 L 235.26155087935234 -0.5 L 149.88077543967617 -0.5 Z"/><text text-anchor="middle" pointer-events="none" font-size="8px" fill="#000000" x="133.88077543967617" y="3" font-family="sans-serif">_PROP</text></g><g class="relationship" transform="translate(-205.3782440690878 129.1354493645583) rotate(412.73621403200366)"><path class="outline" fill="#A5ABB6" stroke="none" d="M 32.5 0.5 L 48.84082807454362 0.5 L 48.84082807454362 -0.5 L 32.5 -0.5 Z M 80.84082807454362 0.5 L 97.18165614908725 0.5 L 97.18165614908725 3.5 L 104.18165614908725 0 L 97.18165614908725 -3.5 L 97.18165614908725 -0.5 L 80.84082807454362 -0.5 Z"/><text text-anchor="middle" pointer-events="none" font-size="8px" fill="#000000" x="64.84082807454362" y="3" font-family="sans-serif">_PROP</text></g><g class="relationship" transform="translate(-205.3782440690878 129.1354493645583) rotate(181.16873655375474)"><path class="outline" fill="#A5ABB6" stroke="none" d="M 32.5 0.5 L 38.30633905150129 0.5 L 38.30633905150129 -0.5 L 32.5 -0.5 Z M 38.30633905150129 0.5 L 44.11267810300258 0.5 L 44.11267810300258 3.5 L 51.11267810300258 0 L 44.11267810300258 -3.5 L 44.11267810300258 -0.5 L 38.30633905150129 -0.5 Z"/><text text-anchor="middle" pointer-events="none" font-size="8px" fill="#000000" x="38.30633905150129" y="3" transform="rotate(180 38.30633905150129 0)" font-family="sans-serif"/></g><g class="relationship" transform="translate(-144.4803140208705 -106.28055747821017) rotate(407.7779359013702)"><path class="outline" fill="#A5ABB6" stroke="none" d="M 32.5 0.5 L 139.62324889763647 0.5 L 139.62324889763647 -0.5 L 32.5 -0.5 Z M 171.62324889763647 0.5 L 278.74649779527294 0.5 L 278.74649779527294 3.5 L 285.74649779527294 0 L 278.74649779527294 -3.5 L 278.74649779527294 -0.5 L 171.62324889763647 -0.5 Z"/><text text-anchor="middle" pointer-events="none" font-size="8px" fill="#000000" x="155.62324889763647" y="3" font-family="sans-serif">_PROP</text></g><g class="relationship" transform="translate(-144.4803140208705 -106.28055747821017) rotate(539.7044105067632)"><path class="outline" fill="#A5ABB6" stroke="none" d="M 32.5 0.5 L 44.24001250417059 0.5 L 44.24001250417059 -0.5 L 32.5 -0.5 Z M 76.2400125041706 0.5 L 87.98002500834119 0.5 L 87.98002500834119 3.5 L 94.98002500834119 0 L 87.98002500834119 -3.5 L 87.98002500834119 -0.5 L 76.2400125041706 -0.5 Z"/><text text-anchor="middle" pointer-events="none" font-size="8px" fill="#000000" x="60.24001250417059" y="3" transform="rotate(180 60.24001250417059 0)" font-family="sans-serif">_PROP</text></g><g class="relationship" transform="translate(-144.4803140208705 -106.28055747821017) rotate(481.726722739787)"><path class="outline" fill="#A5ABB6" stroke="none" d="M 32.5 0.5 L 117.8853327374969 0.5 L 117.8853327374969 -0.5 L 32.5 -0.5 Z M 149.8853327374969 0.5 L 235.2706654749938 0.5 L 235.2706654749938 3.5 L 242.2706654749938 0 L 235.2706654749938 -3.5 L 235.2706654749938 -0.5 L 149.8853327374969 -0.5 Z"/><text text-anchor="middle" pointer-events="none" font-size="8px" fill="#000000" x="133.8853327374969" y="3" transform="rotate(180 133.8853327374969 0)" font-family="sans-serif">_PROP</text></g><g class="relationship" transform="translate(406.5973097328074 28.522912451934303) rotate(322.505144893705)"><path class="outline" fill="#A5ABB6" stroke="none" d="M 32.5 0.5 L 45.80394826424302 0.5 L 45.80394826424302 -0.5 L 32.5 -0.5 Z M 77.80394826424302 0.5 L 91.10789652848604 0.5 L 91.10789652848604 3.5 L 98.10789652848604 0 L 91.10789652848604 -3.5 L 91.10789652848604 -0.5 L 77.80394826424302 -0.5 Z"/><text text-anchor="middle" pointer-events="none" font-size="8px" fill="#000000" x="61.80394826424302" y="3" font-family="sans-serif">_PROP</text></g><g class="relationship" transform="translate(406.5973097328074 28.522912451934303) rotate(400.11310898106734)"><path class="outline" fill="#A5ABB6" stroke="none" d="M 32.5 0.5 L 46.49712640986182 0.5 L 46.49712640986182 -0.5 L 32.5 -0.5 Z M 78.49712640986182 0.5 L 92.49425281972364 0.5 L 92.49425281972364 3.5 L 99.49425281972364 0 L 92.49425281972364 -3.5 L 92.49425281972364 -0.5 L 78.49712640986182 -0.5 Z"/><text text-anchor="middle" pointer-events="none" font-size="8px" fill="#000000" x="62.49712640986182" y="3" font-family="sans-serif">_PROP</text></g><g class="relationship" transform="translate(406.5973097328074 28.522912451934303) rotate(360.55873802497103)"><path class="outline" fill="#A5ABB6" stroke="none" d="M 32.5 0.5 L 33.073170140703866 0.5 L 33.073170140703866 -0.5 L 32.5 -0.5 Z M 62.073170140703866 0.5 L 62.64634028140773 0.5 L 62.64634028140773 3.5 L 69.64634028140773 0 L 62.64634028140773 -3.5 L 62.64634028140773 -0.5 L 62.073170140703866 -0.5 Z"/><text text-anchor="middle" pointer-events="none" font-size="8px" fill="#000000" x="47.573170140703866" y="3" font-family="sans-serif">_PR…</text></g><g class="relationship" transform="translate(-135.60026582610126 359.5897059339909) rotate(311.68444969993334)"><path class="outline" fill="#A5ABB6" stroke="none" d="M 32.5 0.5 L 134.61647718289015 0.5 L 134.61647718289015 -0.5 L 32.5 -0.5 Z M 166.61647718289015 0.5 L 268.7329543657803 0.5 L 268.7329543657803 3.5 L 275.7329543657803 0 L 268.7329543657803 -3.5 L 268.7329543657803 -0.5 L 166.61647718289015 -0.5 Z"/><text text-anchor="middle" pointer-events="none" font-size="8px" fill="#000000" x="150.61647718289015" y="3" font-family="sans-serif">_PROP</text></g><g class="relationship" transform="translate(-135.60026582610126 359.5897059339909) rotate(539.4379579114492)"><path class="outline" fill="#A5ABB6" stroke="none" d="M 32.5 0.5 L 55.195558339319575 0.5 L 55.195558339319575 -0.5 L 32.5 -0.5 Z M 87.19555833931958 0.5 L 109.89111667863915 0.5 L 109.89111667863915 3.5 L 116.89111667863915 0 L 109.89111667863915 -3.5 L 109.89111667863915 -0.5 L 87.19555833931958 -0.5 Z"/><text text-anchor="middle" pointer-events="none" font-size="8px" fill="#000000" x="71.19555833931958" y="3" transform="rotate(180 71.19555833931958 0)" font-family="sans-serif">_PROP</text></g><g class="relationship" transform="translate(-135.60026582610126 359.5897059339909) rotate(236.54977704133967)"><path class="outline" fill="#A5ABB6" stroke="none" d="M 32.5 0.5 L 119.62357935571822 0.5 L 119.62357935571822 -0.5 L 32.5 -0.5 Z M 151.62357935571822 0.5 L 238.74715871143644 0.5 L 238.74715871143644 3.5 L 245.74715871143644 0 L 238.74715871143644 -3.5 L 238.74715871143644 -0.5 L 151.62357935571822 -0.5 Z"/><text text-anchor="middle" pointer-events="none" font-size="8px" fill="#000000" x="135.62357935571822" y="3" transform="rotate(180 135.62357935571822 0)" font-family="sans-serif">_PROP</text></g><g class="relationship" transform="translate(239.58510299242022 29.651533543462577) rotate(359.61281727753135)"><path class="outline" fill="#A5ABB6" stroke="none" d="M 31.26317983184346,8.894581878976458 L 31.52199887694598,7.92865605268739 A 195.02882364047687 195.02882364047687 0 0 0 58.08256708827571,13.102086685048988 L 57.95993595486512,14.094539003862565 A 196.02882364047687 196.02882364047687 0 0 1 31.26317983184346,8.894581878976458 Z M 101.97704284130869,14.553443399312272 L 101.87512992007979,13.558650075809055 A 195.02882364047687 195.02882364047687 0 0 0 128.5377852948556,8.940103055100433 L 127.82191245646526,6.0267671528648314 L 135.45488120647042,7.755289082562202 L 129.49228241270941,12.824550924747903 L 128.77640957431908,9.911215022512302 A 196.02882364047687 196.02882364047687 0 0 1 101.97704284130869,14.553443399312272"/><text text-anchor="middle" pointer-events="none" font-size="8px" fill="#000000" x="79.96077982475154" y="18.063476630178457" font-family="sans-serif">_SOURCE</text></g><g class="relationship" transform="translate(239.58510299242022 29.651533543462577) rotate(359.61281727753135)"><path class="outline" fill="#A5ABB6" stroke="none" d="M 31.26317983184346,-8.894581878976458 L 31.52199887694598,-7.92865605268739 A 195.02882364047687 195.02882364047687 0 0 1 59.56812796748662,-13.279865631951452 L 59.453113969079354,-14.273229502932452 A 196.02882364047687 196.02882364047687 0 0 0 31.26317983184346,-8.894581878976458 Z M 100.48046388419299,-14.70096391215364 L 100.38618544716556,-13.705418043641458 A 195.02882364047687 195.02882364047687 0 0 1 128.5377852948556,-8.940103055100433 L 127.82191245646526,-6.0267671528648314 L 135.45488120647042,-7.755289082562202 L 129.49228241270941,-12.824550924747903 L 128.77640957431908,-9.911215022512302 A 196.02882364047687 196.02882364047687 0 0 0 100.48046388419299,-14.70096391215364"/><text text-anchor="middle" pointer-events="none" font-size="8px" fill="#000000" x="79.96077982475157" y="-12.063476630178457" font-family="sans-serif">_TARGET</text></g><g class="relationship" transform="translate(442.64878042352194 293.7244075576589) rotate(539.9160520999685)"><path class="outline" fill="#A5ABB6" stroke="none" d="M 31.26317983184346,-8.894581878976458 L 31.52199887694598,-7.92865605268739 A 154.57296588032736 154.57296588032736 0 0 1 56.269660705343526,-12.4406191302688 L 56.17094508898389,-13.435734815547022 A 155.57296588032736 155.57296588032736 0 0 0 31.26317983184346,-8.894581878976458 Z M 83.22190962104735,-13.755515307595005 L 83.14674564091672,-12.75834412064117 A 154.57296588032736 154.57296588032736 0 0 1 107.99415228625749,-8.832664588731056 L 107.28641418133428,-5.917341832184243 L 114.91452840235392,-7.667162803334716 L 108.93780309282177,-12.719761597460142 L 108.23006498789856,-9.804438840913328 A 155.57296588032736 155.57296588032736 0 0 0 83.22190962104735,-13.755515307595005"/><text text-anchor="middle" pointer-events="none" font-size="8px" fill="#000000" x="69.69537356126713" y="-10.68476788930198" transform="rotate(180 69.69537356126713 -13.68476788930198)" font-family="sans-serif">LIKES</text></g><g class="relationship" transform="translate(296.15174606908175 293.9390503690421) rotate(359.9160520999685)"><path class="outline" fill="#A5ABB6" stroke="none" d="M 31.26317983184346,-8.894581878976458 L 31.52199887694598,-7.92865605268739 A 154.57296588032736 154.57296588032736 0 0 1 56.269660705343526,-12.4406191302688 L 56.17094508898389,-13.435734815547022 A 155.57296588032736 155.57296588032736 0 0 0 31.26317983184346,-8.894581878976458 Z M 83.22190962104735,-13.755515307595005 L 83.14674564091672,-12.75834412064117 A 154.57296588032736 154.57296588032736 0 0 1 107.99415228625749,-8.832664588731056 L 107.28641418133428,-5.917341832184243 L 114.91452840235392,-7.667162803334716 L 108.93780309282177,-12.719761597460142 L 108.23006498789856,-9.804438840913328 A 155.57296588032736 155.57296588032736 0 0 0 83.22190962104735,-13.755515307595005"/><text text-anchor="middle" pointer-events="none" font-size="8px" fill="#000000" x="69.69537356126713" y="-10.68476788930198" font-family="sans-serif">LIKES</text></g><g class="relationship" transform="translate(-66.61607579149343 174.76625046154936) rotate(198.20302623431144)"><path class="outline" fill="#A5ABB6" stroke="none" d="M 32.5 0.5 L 47.53613720935098 0.5 L 47.53613720935098 -0.5 L 32.5 -0.5 Z M 91.53613720935098 0.5 L 106.57227441870197 0.5 L 106.57227441870197 3.5 L 113.57227441870197 0 L 106.57227441870197 -3.5 L 106.57227441870197 -0.5 L 91.53613720935098 -0.5 Z"/><text text-anchor="middle" pointer-events="none" font-size="8px" fill="#000000" x="69.53613720935098" y="3" transform="rotate(180 69.53613720935098 0)" font-family="sans-serif">_SOURCE</text></g><g class="relationship" transform="translate(-64.92748400246244 79.33432166359268) rotate(520.4764762334026)"><path class="outline" fill="#A5ABB6" stroke="none" d="M 32.5 0.5 L 49.00934223904518 0.5 L 49.00934223904518 -0.5 L 32.5 -0.5 Z M 93.00934223904518 0.5 L 109.51868447809036 0.5 L 109.51868447809036 3.5 L 116.51868447809036 0 L 109.51868447809036 -3.5 L 109.51868447809036 -0.5 L 93.00934223904518 -0.5 Z"/><text text-anchor="middle" pointer-events="none" font-size="8px" fill="#000000" x="71.00934223904518" y="3" transform="rotate(180 71.00934223904518 0)" font-family="sans-serif">_SOURCE</text></g></g><g class="layer nodes"><g class="node" transform="translate(-288.9735275471325,127.43001106849675)"><circle class="outline" cx="0" cy="0" r="32.5" fill="#4C8EDA" stroke="#2870c2" stroke-width="2px"/><text text-anchor="middle" pointer-events="none" font-family="sans-serif" dy="2.03125" font-size="32.5" fill="#FFFFFF"/><text text-anchor="middle" pointer-events="none" y="5" font-size="10px" fill="#FFFFFF" font-family="sans-serif"> description</text></g><g class="node" transform="translate(69.38318367899944,129.3955713735138)"><circle class="outline" cx="0" cy="0" r="32.5" fill="#4C8EDA" stroke="#2870c2" stroke-width="2px"/><text text-anchor="middle" pointer-events="none" font-family="sans-serif" dy="2.03125" font-size="32.5" fill="#FFFFFF"/><text text-anchor="middle" pointer-events="none" y="5" font-size="10px" fill="#FFFFFF" font-family="sans-serif"> _techname</text></g><g class="node" transform="translate(-398.4067821377155,124.37943495718903)"><circle class="outline" cx="0" cy="0" r="32.5" fill="#DA7194" stroke="#cc3c6c" stroke-width="2px"/><text text-anchor="middle" pointer-events="none" font-family="sans-serif" dy="2.03125" font-size="32.5" fill="#FFFFFF"/><text text-anchor="middle" pointer-events="none" y="5" font-size="10px" fill="#FFFFFF" font-family="sans-serif"> _PROP</text></g><g class="node" transform="translate(-519.4512414571459,124.0539618390037)"><circle class="outline" cx="0" cy="0" r="32.5" fill="#4C8EDA" stroke="#2870c2" stroke-width="2px"/><text text-anchor="middle" pointer-events="none" font-family="sans-serif" dy="2.03125" font-size="32.5" fill="#FFFFFF"/><text text-anchor="middle" pointer-events="none" y="5" font-size="10px" fill="#FFFFFF" font-family="sans-serif"> _arity</text></g><g class="node" transform="translate(-205.3782440690878,129.1354493645583)"><circle class="outline" cx="0" cy="0" r="32.5" fill="#FFC454" stroke="#d7a013" stroke-width="2px"/><text text-anchor="middle" pointer-events="none" font-family="sans-serif" dy="2.03125" font-size="32.5" fill="#604A0E"/><text text-anchor="middle" pointer-events="none" y="5" font-size="10px" fill="#604A0E" font-family="sans-serif"> _Relation</text></g><g class="node" transform="translate(-144.4803140208705,-106.28055747821017)"><circle class="outline" cx="0" cy="0" r="32.5" fill="#FFC454" stroke="#d7a013" stroke-width="2px"/><text text-anchor="middle" pointer-events="none" font-family="sans-serif" dy="2.03125" font-size="32.5" fill="#604A0E"/><text text-anchor="middle" pointer-events="none" y="5" font-size="10px" fill="#604A0E" font-family="sans-serif"> _Property</text></g><g class="node" transform="translate(-271.9586425681254,-105.62288968560676)"><circle class="outline" cx="0" cy="0" r="32.5" fill="#4C8EDA" stroke="#2870c2" stroke-width="2px"/><text text-anchor="middle" pointer-events="none" font-family="sans-serif" dy="2.03125" font-size="32.5" fill="#FFFFFF"/><text text-anchor="middle" pointer-events="none" y="5" font-size="10px" fill="#FFFFFF" font-family="sans-serif"> _scalartype</text></g><g class="node" transform="translate(508.7387930985142,29.51900920335021)"><circle class="outline" cx="0" cy="0" r="32.5" fill="#4C8EDA" stroke="#2870c2" stroke-width="2px"/><text text-anchor="middle" pointer-events="none" font-family="sans-serif" dy="2.03125" font-size="32.5" fill="#FFFFFF"/><text text-anchor="middle" pointer-events="none" y="5" font-size="10px" fill="#FFFFFF" font-family="sans-serif"> name</text></g><g class="node" transform="translate(406.5973097328074,28.522912451934303)"><circle class="outline" cx="0" cy="0" r="32.5" fill="#FFC454" stroke="#d7a013" stroke-width="2px"/><text text-anchor="middle" pointer-events="none" font-family="sans-serif" dy="2.03125" font-size="32.5" fill="#604A0E"/><text text-anchor="middle" pointer-events="none" y="5" font-size="10px" fill="#604A0E" font-family="sans-serif"> Person</text></g><g class="node" transform="translate(507.5430835883833,113.56662778784874)"><circle class="outline" cx="0" cy="0" r="32.5" fill="#4C8EDA" stroke="#2870c2" stroke-width="2px"/><text text-anchor="middle" pointer-events="none" font-family="sans-serif" dy="2.03125" font-size="32.5" fill="#FFFFFF"/><text text-anchor="middle" pointer-events="none" y="5" font-size="10px" fill="#FFFFFF" font-family="sans-serif"> firstname</text></g><g class="node" transform="translate(-135.60026582610126,359.5897059339909)"><circle class="outline" cx="0" cy="0" r="32.5" fill="#FFC454" stroke="#d7a013" stroke-width="2px"/><text text-anchor="middle" pointer-events="none" font-family="sans-serif" dy="2.03125" font-size="32.5" fill="#604A0E"/><text text-anchor="middle" pointer-events="none" y="5" font-size="10px" fill="#604A0E" font-family="sans-serif"> _Schema</text></g><g class="node" transform="translate(510.2226598360785,-50.976832526085644)"><circle class="outline" cx="0" cy="0" r="32.5" fill="#4C8EDA" stroke="#2870c2" stroke-width="2px"/><text text-anchor="middle" pointer-events="none" font-family="sans-serif" dy="2.03125" font-size="32.5" fill="#FFFFFF"/><text text-anchor="middle" pointer-events="none" y="5" font-size="10px" fill="#FFFFFF" font-family="sans-serif"> lastname</text></g><g class="node" transform="translate(239.58510299242022,29.651533543462577)"><circle class="outline" cx="0" cy="0" r="32.5" fill="#DA7194" stroke="#cc3c6c" stroke-width="2px"/><text text-anchor="middle" pointer-events="none" font-family="sans-serif" dy="2.03125" font-size="32.5" fill="#FFFFFF"/><text text-anchor="middle" pointer-events="none" y="5" font-size="10px" fill="#FFFFFF" font-family="sans-serif"> LIKES</text></g><g class="node" transform="translate(442.64878042352194,293.7244075576589)"><circle class="outline" cx="0" cy="0" r="32.5" fill="#569480" stroke="#447666" stroke-width="2px"/><text text-anchor="middle" pointer-events="none" font-family="sans-serif" dy="2.03125" font-size="32.5" fill="#FFFFFF"/><text text-anchor="middle" pointer-events="none" y="5" font-size="10px" fill="#FFFFFF" font-family="sans-serif"> Bob</text></g><g class="node" transform="translate(296.15174606908175,293.9390503690421)"><circle class="outline" cx="0" cy="0" r="32.5" fill="#569480" stroke="#447666" stroke-width="2px"/><text text-anchor="middle" pointer-events="none" font-family="sans-serif" dy="2.03125" font-size="32.5" fill="#FFFFFF"/><text text-anchor="middle" pointer-events="none" y="5" font-size="10px" fill="#FFFFFF" font-family="sans-serif"> Alice Alison</text></g><g class="node" transform="translate(-284.98419490791076,361.05513234691193)"><circle class="outline" cx="0" cy="0" r="32.5" fill="#4C8EDA" stroke="#2870c2" stroke-width="2px"/><text text-anchor="middle" pointer-events="none" font-family="sans-serif" dy="2.03125" font-size="32.5" fill="#FFFFFF"/><text text-anchor="middle" pointer-events="none" y="5" font-size="10px" fill="#FFFFFF" font-family="sans-serif"> _schemana…</text></g><g class="node" transform="translate(-122.61948356690228,237.9144118885648)"><circle class="outline" cx="0" cy="0" r="32.5" fill="#4C8EDA" stroke="#2870c2" stroke-width="2px"/><text text-anchor="middle" pointer-events="none" font-family="sans-serif" dy="2.03125" font-size="32.5" fill="#FFFFFF"/><text text-anchor="middle" pointer-events="none" y="5" font-size="10px" fill="#FFFFFF" font-family="sans-serif"> _sourcearity</text></g><g class="node" transform="translate(-134.69218111681445,17.86363224957192)"><circle class="outline" cx="0" cy="0" r="32.5" fill="#4C8EDA" stroke="#2870c2" stroke-width="2px"/><text text-anchor="middle" pointer-events="none" font-family="sans-serif" dy="2.03125" font-size="32.5" fill="#FFFFFF"/><text text-anchor="middle" pointer-events="none" y="5" font-size="10px" fill="#FFFFFF" font-family="sans-serif"> _targetarity</text></g><g class="node" transform="translate(-66.61607579149343,174.76625046154936)"><circle class="outline" cx="0" cy="0" r="32.5" fill="#DA7194" stroke="#cc3c6c" stroke-width="2px"/><text text-anchor="middle" pointer-events="none" font-family="sans-serif" dy="2.03125" font-size="32.5" fill="#FFFFFF"/><text text-anchor="middle" pointer-events="none" y="5" font-size="10px" fill="#FFFFFF" font-family="sans-serif"> _SOURCE</text></g><g class="node" transform="translate(-64.92748400246244,79.33432166359268)"><circle class="outline" cx="0" cy="0" r="32.5" fill="#DA7194" stroke="#cc3c6c" stroke-width="2px"/><text text-anchor="middle" pointer-events="none" font-family="sans-serif" dy="2.03125" font-size="32.5" fill="#FFFFFF"/><text text-anchor="middle" pointer-events="none" y="5" font-size="10px" fill="#FFFFFF" font-family="sans-serif"> _TARGET</text></g></g></svg>