<svg xmlns="http://www.w3.org/2000/svg" width="984.7918701171875" height="993.2648315429688" viewBox="-645.71826171875 -50.70286178588867 984.7918701171875 993.2648315429688"><title>Neo4j Graph Visualization</title><desc>Created using Neo4j (http://www.neo4j.com/)</desc><g class="layer relationships"><g class="relationship" transform="translate(0.033866253638279886 -14.20286120845833) rotate(396.02711075707657)"><path class="outline" fill="#A5ABB6" stroke="none" d="M 32.5 0.5 L 167.544180723611 0.5 L 167.544180723611 -0.5 L 32.5 -0.5 Z M 199.544180723611 0.5 L 334.588361447222 0.5 L 334.588361447222 3.5 L 341.588361447222 0 L 334.588361447222 -3.5 L 334.588361447222 -0.5 L 199.544180723611 -0.5 Z"/><text text-anchor="middle" pointer-events="none" font-size="8px" fill="#000000" x="183.544180723611" y="3" font-family="sans-serif">_PROP</text></g><g class="relationship" transform="translate(0.033866253638279886 -14.20286120845833) rotate(502.4950451361799)"><path class="outline" fill="#A5ABB6" stroke="none" d="M 32.5 0.5 L 159.65509392836282 0.5 L 159.65509392836282 -0.5 L 32.5 -0.5 Z M 191.65509392836282 0.5 L 318.81018785672563 0.5 L 318.81018785672563 3.5 L 325.81018785672563 0 L 318.81018785672563 -3.5 L 318.81018785672563 -0.5 L 191.65509392836282 -0.5 Z"/><text text-anchor="middle" pointer-events="none" font-size="8px" fill="#000000" x="175.65509392836282" y="3" transform="rotate(180 175.65509392836282 0)" font-family="sans-serif">_PROP</text></g><g class="relationship" transform="translate(0.033866253638279886 -14.20286120845833) rotate(538.3874995167098)"><path class="outline" fill="#A5ABB6" stroke="none" d="M 32.5 0.5 L 73.86592342601152 0.5 L 73.86592342601152 -0.5 L 32.5 -0.5 Z M 105.86592342601152 0.5 L 147.23184685202304 0.5 L 147.23184685202304 3.5 L 154.23184685202304 0 L 147.23184685202304 -3.5 L 147.23184685202304 -0.5 L 105.86592342601152 -0.5 Z"/><text text-anchor="middle" pointer-events="none" font-size="8px" fill="#000000" x="89.86592342601152" y="3" transform="rotate(180 89.86592342601152 0)" font-family="sans-serif">_PROP</text></g><g class="relationship" transform="translate(-438.37388232221775 197.1687306520724) rotate(390.1581280774469)"><path class="outline" fill="#A5ABB6" stroke="none" d="M 32.5 0.5 L 230.19708224399784 0.5 L 230.19708224399784 -0.5 L 32.5 -0.5 Z M 271.19708224399784 0.5 L 468.8941644879957 0.5 L 468.8941644879957 3.5 L 475.8941644879957 0 L 468.8941644879957 -3.5 L 468.8941644879957 -0.5 L 271.19708224399784 -0.5 Z"/><text text-anchor="middle" pointer-events="none" font-size="8px" fill="#000000" x="250.69708224399784" y="3" font-family="sans-serif">_TARGET</text></g><g class="relationship" transform="translate(-438.37388232221775 197.1687306520724) rotate(334.259670487897)"><path class="outline" fill="#A5ABB6" stroke="none" d="M 32.5 0.5 L 217.8512399069531 0.5 L 217.8512399069531 -0.5 L 32.5 -0.5 Z M 261.8512399069531 0.5 L 447.2024798139062 0.5 L 447.2024798139062 3.5 L 454.2024798139062 0 L 447.2024798139062 -3.5 L 447.2024798139062 -0.5 L 261.8512399069531 -0.5 Z"/><text text-anchor="middle" pointer-events="none" font-size="8px" fill="#000000" x="239.8512399069531" y="3" font-family="sans-serif">_SOURCE</text></g><g class="relationship" transform="translate(-438.37388232221775 197.1687306520724) rotate(539.222398764351)"><path class="outline" fill="#A5ABB6" stroke="none" d="M 32.5 0.5 L 65.93006443862527 0.5 L 65.93006443862527 -0.5 L 32.5 -0.5 Z M 97.93006443862527 0.5 L 131.36012887725053 0.5 L 131.36012887725053 3.5 L 138.36012887725053 0 L 131.36012887725053 -3.5 L 131.36012887725053 -0.5 L 97.93006443862527 -0.5 Z"/><text text-anchor="middle" pointer-events="none" font-size="8px" fill="#000000" x="81.93006443862527" y="3" transform="rotate(180 81.93006443862527 0)" font-family="sans-serif">_PROP</text></g><g class="relationship" transform="translate(2.8587689373125045 207.78008930390388) rotate(359.62605263150783)"><path class="outline" fill="#A5ABB6" stroke="none" d="M 32.5 0.5 L 130.36062301167973 0.5 L 130.36062301167973 -0.5 L 32.5 -0.5 Z M 162.36062301167973 0.5 L 260.22124602335947 0.5 L 260.22124602335947 3.5 L 267.22124602335947 0 L 260.22124602335947 -3.5 L 260.22124602335947 -0.5 L 162.36062301167973 -0.5 Z"/><text text-anchor="middle" pointer-events="none" font-size="8px" fill="#000000" x="146.36062301167973" y="3" font-family="sans-serif">_PROP</text></g><g class="relationship" transform="translate(2.8587689373125045 207.78008930390388) rotate(504.30850268375286)"><path class="outline" fill="#A5ABB6" stroke="none" d="M 32.5 0.5 L 42.05688537869184 0.5 L 42.05688537869184 -0.5 L 32.5 -0.5 Z M 74.05688537869185 0.5 L 83.61377075738368 0.5 L 83.61377075738368 3.5 L 90.61377075738368 0 L 83.61377075738368 -3.5 L 83.61377075738368 -0.5 L 74.05688537869185 -0.5 Z"/><text text-anchor="middle" pointer-events="none" font-size="8px" fill="#000000" x="58.05688537869184" y="3" transform="rotate(180 58.05688537869184 0)" font-family="sans-serif">_PROP</text></g><g class="relationship" transform="translate(2.8587689373125045 207.78008930390388) rotate(180.764958348829)"><path class="outline" fill="#A5ABB6" stroke="none" d="M 32.5 0.5 L 124.04910505527403 0.5 L 124.04910505527403 -0.5 L 32.5 -0.5 Z M 156.04910505527403 0.5 L 247.59821011054805 0.5 L 247.59821011054805 3.5 L 254.59821011054805 0 L 247.59821011054805 -3.5 L 247.59821011054805 -0.5 L 156.04910505527403 -0.5 Z"/><text text-anchor="middle" pointer-events="none" font-size="8px" fill="#000000" x="140.04910505527403" y="3" transform="rotate(180 140.04910505527403 0)" font-family="sans-serif">_PROP</text></g><g class="relationship" transform="translate(2.8587689373125045 207.78008930390388) rotate(399.22416219905494)"><path class="outline" fill="#A5ABB6" stroke="none" d="M 32.5 0.5 L 38.00504575768887 0.5 L 38.00504575768887 -0.5 L 32.5 -0.5 Z M 70.00504575768886 0.5 L 75.51009151537774 0.5 L 75.51009151537774 3.5 L 82.51009151537774 0 L 75.51009151537774 -3.5 L 75.51009151537774 -0.5 L 70.00504575768886 -0.5 Z"/><text text-anchor="middle" pointer-events="none" font-size="8px" fill="#000000" x="54.00504575768887" y="3" font-family="sans-serif">_PROP</text></g><g class="relationship" transform="translate(1.2051561414834566 452.57995873097883) rotate(320.689893850862)"><path class="outline" fill="#A5ABB6" stroke="none" d="M 32.5 0.5 L 175.25079674321748 0.5 L 175.25079674321748 -0.5 L 32.5 -0.5 Z M 207.25079674321748 0.5 L 350.00159348643496 0.5 L 350.00159348643496 3.5 L 357.00159348643496 0 L 350.00159348643496 -3.5 L 350.00159348643496 -0.5 L 207.25079674321748 -0.5 Z"/><text text-anchor="middle" pointer-events="none" font-size="8px" fill="#000000" x="191.25079674321748" y="3" font-family="sans-serif">_PROP</text></g><g class="relationship" transform="translate(1.2051561414834566 452.57995873097883) rotate(539.2984206152878)"><path class="outline" fill="#A5ABB6" stroke="none" d="M 32.5 0.5 L 72.26827649040845 0.5 L 72.26827649040845 -0.5 L 32.5 -0.5 Z M 104.26827649040845 0.5 L 144.0365529808169 0.5 L 144.0365529808169 3.5 L 151.0365529808169 0 L 144.0365529808169 -3.5 L 144.0365529808169 -0.5 L 104.26827649040845 -0.5 Z"/><text text-anchor="middle" pointer-events="none" font-size="8px" fill="#000000" x="88.26827649040845" y="3" transform="rotate(180 88.26827649040845 0)" font-family="sans-serif">_PROP</text></g><g class="relationship" transform="translate(1.2051561414834566 452.57995873097883) rotate(221.05961515748567)"><path class="outline" fill="#A5ABB6" stroke="none" d="M 32.5 0.5 L 169.7632349118257 0.5 L 169.7632349118257 -0.5 L 32.5 -0.5 Z M 201.7632349118257 0.5 L 339.0264698236514 0.5 L 339.0264698236514 3.5 L 346.0264698236514 0 L 339.0264698236514 -3.5 L 339.0264698236514 -0.5 L 201.7632349118257 -0.5 Z"/><text text-anchor="middle" pointer-events="none" font-size="8px" fill="#000000" x="185.7632349118257" y="3" transform="rotate(180 185.7632349118257 0)" font-family="sans-serif">_PROP</text></g><g class="relationship" transform="translate(10.714213330422467 645.7209599895222) rotate(357.3969662764606)"><path class="outline" fill="#A5ABB6" stroke="none" d="M 32.5 0.5 L 61.49822897767973 0.5 L 61.49822897767973 -0.5 L 32.5 -0.5 Z M 93.49822897767973 0.5 L 122.49645795535946 0.5 L 122.49645795535946 3.5 L 129.49645795535946 0 L 122.49645795535946 -3.5 L 122.49645795535946 -0.5 L 93.49822897767973 -0.5 Z"/><text text-anchor="middle" pointer-events="none" font-size="8px" fill="#000000" x="77.49822897767973" y="3" font-family="sans-serif">_PROP</text></g><g class="relationship" transform="translate(10.714213330422467 645.7209599895222) rotate(386.59299696140954)"><path class="outline" fill="#A5ABB6" stroke="none" d="M 32.5 0.5 L 70.22492642004107 0.5 L 70.22492642004107 -0.5 L 32.5 -0.5 Z M 102.22492642004107 0.5 L 139.94985284008214 0.5 L 139.94985284008214 3.5 L 146.94985284008214 0 L 139.94985284008214 -3.5 L 139.94985284008214 -0.5 L 102.22492642004107 -0.5 Z"/><text text-anchor="middle" pointer-events="none" font-size="8px" fill="#000000" x="86.22492642004107" y="3" font-family="sans-serif">_PROP</text></g><g class="relationship" transform="translate(10.714213330422467 645.7209599895222) rotate(326.5919025931979)"><path class="outline" fill="#A5ABB6" stroke="none" d="M 32.5 0.5 L 74.21212745938507 0.5 L 74.21212745938507 -0.5 L 32.5 -0.5 Z M 106.21212745938507 0.5 L 147.92425491877015 0.5 L 147.92425491877015 3.5 L 154.92425491877015 0 L 147.92425491877015 -3.5 L 147.92425491877015 -0.5 L 106.21212745938507 -0.5 Z"/><text text-anchor="middle" pointer-events="none" font-size="8px" fill="#000000" x="90.21212745938507" y="3" font-family="sans-serif">_PROP</text></g><g class="relationship" transform="translate(-168.5082617269657 906.0619370618118) rotate(359.2010004166657)"><path class="outline" fill="#A5ABB6" stroke="none" d="M 31.26317983184346,-8.894581878976458 L 31.52199887694598,-7.92865605268739 A 222.12769116401512 222.12769116401512 0 0 1 73.41064805988617,-14.948846577854738 L 73.34040815574275,-15.946376705653364 A 223.12769116401512 223.12769116401512 0 0 0 31.26317983184346,-8.894581878976458 Z M 100.383204909134,-16.207575851755024 L 100.33224606554549,-15.20887509764492 A 222.12769116401512 222.12769116401512 0 0 1 142.34867993747332,-8.999101344358683 L 141.62834015637983,-6.086866704125484 L 149.2639507281997,-7.8036809618460845 L 143.30913297893127,-12.882080864669614 L 142.5887931978378,-9.969846224436415 A 223.12769116401512 223.12769116401512 0 0 0 100.383204909134,-16.207575851755024"/><text text-anchor="middle" pointer-events="none" font-size="8px" fill="#000000" x="86.8626747226766" y="-12.987089720857739" font-family="sans-serif">LIKES</text></g><g class="relationship" transform="translate(12.287316714361708 903.5405479160572) rotate(539.2010004166657)"><path class="outline" fill="#A5ABB6" stroke="none" d="M 31.26317983184346,-8.894581878976458 L 31.52199887694598,-7.92865605268739 A 222.12769116401512 222.12769116401512 0 0 1 73.41064805988617,-14.948846577854738 L 73.34040815574275,-15.946376705653364 A 223.12769116401512 223.12769116401512 0 0 0 31.26317983184346,-8.894581878976458 Z M 100.383204909134,-16.207575851755024 L 100.33224606554549,-15.20887509764492 A 222.12769116401512 222.12769116401512 0 0 1 142.34867993747332,-8.999101344358683 L 141.62834015637983,-6.086866704125484 L 149.2639507281997,-7.8036809618460845 L 143.30913297893127,-12.882080864669614 L 142.5887931978378,-9.969846224436415 A 223.12769116401512 223.12769116401512 0 0 0 100.383204909134,-16.207575851755024"/><text text-anchor="middle" pointer-events="none" font-size="8px" fill="#000000" x="86.8626747226766" y="-12.987089720857739" transform="rotate(180 86.8626747226766 -15.987089720857739)" font-family="sans-serif">LIKES</text></g><g class="relationship" transform="translate(-172.96522976918317 646.082690680131) rotate(359.8871642098395)"><path class="outline" fill="#A5ABB6" stroke="none" d="M 31.26317983184346,8.894581878976458 L 31.52199887694598,7.92865605268739 A 227.74965430003493 227.74965430003493 0 0 0 67.8834372501245,14.566488556193406 L 67.78427350059172,15.561559684695595 A 228.74965430003493 228.74965430003493 0 0 1 31.26317983184346,8.894581878976458 Z M 108.81701082159648,15.951918209966209 L 108.73679621339332,14.95514059352871 A 227.74965430003493 227.74965430003493 0 0 0 145.2179380247319,9.010284577437721 L 144.49675153686184,6.0982595003283855 L 152.13286095263203,7.812853618592445 L 146.17952000855865,12.89298468025017 L 145.4583335206886,9.980959603140834 A 228.74965430003493 228.74965430003493 0 0 1 108.81701082159648,15.951918209966209"/><text text-anchor="middle" pointer-events="none" font-size="8px" fill="#000000" x="88.29662781201384" y="19.178709317290327" font-family="sans-serif">_TARGET</text></g><g class="relationship" transform="translate(-172.96522976918317 646.082690680131) rotate(359.8871642098395)"><path class="outline" fill="#A5ABB6" stroke="none" d="M 31.26317983184346,-8.894581878976458 L 31.52199887694598,-7.92865605268739 A 227.74965430003493 227.74965430003493 0 0 1 66.3945986448615,-14.413176081238902 L 66.28889772358266,-15.407574047468103 A 228.74965430003493 228.74965430003493 0 0 0 31.26317983184346,-8.894581878976458 Z M 110.3150455203925,-15.82640991486005 L 110.22828211672393,-14.830180969394263 A 227.74965430003493 227.74965430003493 0 0 1 145.2179380247319,-9.010284577437721 L 144.49675153686184,-6.0982595003283855 L 152.13286095263203,-7.812853618592445 L 146.17952000855865,-12.89298468025017 L 145.4583335206886,-9.980959603140834 A 228.74965430003493 228.74965430003493 0 0 0 110.3150455203925,-15.82640991486005"/><text text-anchor="middle" pointer-events="none" font-size="8px" fill="#000000" x="88.29662781201377" y="-13.178709317290327" font-family="sans-serif">_SOURCE</text></g><g class="relationship" transform="translate(-100.46322401396048 120.69895079885288) rotate(306.6848106645402)"><path class="outline" fill="#A5ABB6" stroke="none" d="M 32.5 0.5 L 60.110290742438025 0.5 L 60.110290742438025 -0.5 L 32.5 -0.5 Z M 101.11029074243802 0.5 L 128.72058148487605 0.5 L 128.72058148487605 3.5 L 135.72058148487605 0 L 128.72058148487605 -3.5 L 128.72058148487605 -0.5 L 101.11029074243802 -0.5 Z"/><text text-anchor="middle" pointer-events="none" font-size="8px" fill="#000000" x="80.61029074243802" y="3" font-family="sans-serif">_TARGET</text></g><g class="relationship" transform="translate(-100.46322401396048 120.69895079885288) rotate(400.12463120884064)"><path class="outline" fill="#A5ABB6" stroke="none" d="M 32.5 0.5 L 42.062117548887514 0.5 L 42.062117548887514 -0.5 L 32.5 -0.5 Z M 86.06211754888751 0.5 L 95.62423509777503 0.5 L 95.62423509777503 3.5 L 102.62423509777503 0 L 95.62423509777503 -3.5 L 95.62423509777503 -0.5 L 86.06211754888751 -0.5 Z"/><text text-anchor="middle" pointer-events="none" font-size="8px" fill="#000000" x="64.06211754888751" y="3" font-family="sans-serif">_SOURCE</text></g><g class="relationship" transform="translate(102.47266447625469 114.61243095581636) rotate(231.50695066935975)"><path class="outline" fill="#A5ABB6" stroke="none" d="M 32.5 0.5 L 58.290775419638265 0.5 L 58.290775419638265 -0.5 L 32.5 -0.5 Z M 99.29077541963827 0.5 L 125.08155083927653 0.5 L 125.08155083927653 3.5 L 132.08155083927653 0 L 125.08155083927653 -3.5 L 125.08155083927653 -0.5 L 99.29077541963827 -0.5 Z"/><text text-anchor="middle" pointer-events="none" font-size="8px" fill="#000000" x="78.79077541963827" y="3" transform="rotate(180 78.79077541963827 0)" font-family="sans-serif">_TARGET</text></g><g class="relationship" transform="translate(102.47266447625469 114.61243095581636) rotate(496.91514496832235)"><path class="outline" fill="#A5ABB6" stroke="none" d="M 32.5 0.5 L 42.696665509593004 0.5 L 42.696665509593004 -0.5 L 32.5 -0.5 Z M 86.696665509593 0.5 L 96.89333101918601 0.5 L 96.89333101918601 3.5 L 103.89333101918601 0 L 96.89333101918601 -3.5 L 96.89333101918601 -0.5 L 86.696665509593 -0.5 Z"/><text text-anchor="middle" pointer-events="none" font-size="8px" fill="#000000" x="64.696665509593" y="3" transform="rotate(180 64.696665509593 0)" font-family="sans-serif">_SOURCE</text></g></g><g class="layer nodes"><g class="node" transform="translate(0.033866253638279886,-14.20286120845833)"><circle class="outline" cx="0" cy="0" r="32.5" fill="#FFC454" stroke="#d7a013" stroke-width="2px"/><text text-anchor="middle" pointer-events="none" font-family="sans-serif" dy="2.03125" font-size="32.5" fill="#604A0E"/><text text-anchor="middle" pointer-events="none" y="5" font-size="10px" fill="#604A0E" font-family="sans-serif"> _Schema</text></g><g class="node" transform="translate(302.5736314191136,205.8239386680259)"><circle class="outline" cx="0" cy="0" r="32.5" fill="#4C8EDA" stroke="#2870c2" stroke-width="2px"/><text text-anchor="middle" pointer-events="none" font-family="sans-serif" dy="2.03125" font-size="32.5" fill="#FFFFFF"/><text text-anchor="middle" pointer-events="none" y="5" font-size="10px" fill="#FFFFFF" font-family="sans-serif"> _techname</text></g><g class="node" transform="translate(-284.21385387970935,203.94714296508297)"><circle class="outline" cx="0" cy="0" r="32.5" fill="#4C8EDA" stroke="#2870c2" stroke-width="2px"/><text text-anchor="middle" pointer-events="none" font-family="sans-serif" dy="2.03125" font-size="32.5" fill="#FFFFFF"/><text text-anchor="middle" pointer-events="none" y="5" font-size="10px" fill="#FFFFFF" font-family="sans-serif"> description</text></g><g class="node" transform="translate(-438.37388232221775,197.1687306520724)"><circle class="outline" cx="0" cy="0" r="32.5" fill="#DA7194" stroke="#cc3c6c" stroke-width="2px"/><text text-anchor="middle" pointer-events="none" font-family="sans-serif" dy="2.03125" font-size="32.5" fill="#FFFFFF"/><text text-anchor="middle" pointer-events="none" y="5" font-size="10px" fill="#FFFFFF" font-family="sans-serif"> _PROP</text></g><g class="node" transform="translate(2.8587689373125045,207.78008930390388)"><circle class="outline" cx="0" cy="0" r="32.5" fill="#FFC454" stroke="#d7a013" stroke-width="2px"/><text text-anchor="middle" pointer-events="none" font-family="sans-serif" dy="2.03125" font-size="32.5" fill="#604A0E"/><text text-anchor="middle" pointer-events="none" y="5" font-size="10px" fill="#604A0E" font-family="sans-serif"> _Relation</text></g><g class="node" transform="translate(-609.2182759842594,199.48752219078312)"><circle class="outline" cx="0" cy="0" r="32.5" fill="#4C8EDA" stroke="#2870c2" stroke-width="2px"/><text text-anchor="middle" pointer-events="none" font-family="sans-serif" dy="2.03125" font-size="32.5" fill="#FFFFFF"/><text text-anchor="middle" pointer-events="none" y="5" font-size="10px" fill="#FFFFFF" font-family="sans-serif"> _arity</text></g><g class="node" transform="translate(1.2051561414834566,452.57995873097883)"><circle class="outline" cx="0" cy="0" r="32.5" fill="#FFC454" stroke="#d7a013" stroke-width="2px"/><text text-anchor="middle" pointer-events="none" font-family="sans-serif" dy="2.03125" font-size="32.5" fill="#604A0E"/><text text-anchor="middle" pointer-events="none" y="5" font-size="10px" fill="#604A0E" font-family="sans-serif"> _Property</text></g><g class="node" transform="translate(10.714213330422467,645.7209599895222)"><circle class="outline" cx="0" cy="0" r="32.5" fill="#FFC454" stroke="#d7a013" stroke-width="2px"/><text text-anchor="middle" pointer-events="none" font-family="sans-serif" dy="2.03125" font-size="32.5" fill="#604A0E"/><text text-anchor="middle" pointer-events="none" y="5" font-size="10px" fill="#604A0E" font-family="sans-serif"> Person</text></g><g class="node" transform="translate(-168.5082617269657,906.0619370618118)"><circle class="outline" cx="0" cy="0" r="32.5" fill="#569480" stroke="#447666" stroke-width="2px"/><text text-anchor="middle" pointer-events="none" font-family="sans-serif" dy="2.03125" font-size="32.5" fill="#FFFFFF"/><text text-anchor="middle" pointer-events="none" y="5" font-size="10px" fill="#FFFFFF" font-family="sans-serif"> Bob</text></g><g class="node" transform="translate(12.287316714361708,903.5405479160572)"><circle class="outline" cx="0" cy="0" r="32.5" fill="#569480" stroke="#447666" stroke-width="2px"/><text text-anchor="middle" pointer-events="none" font-family="sans-serif" dy="2.03125" font-size="32.5" fill="#FFFFFF"/><text text-anchor="middle" pointer-events="none" y="5" font-size="10px" fill="#FFFFFF" font-family="sans-serif"> Alice Alison</text></g><g class="node" transform="translate(172.54351791193454,638.3637479668372)"><circle class="outline" cx="0" cy="0" r="32.5" fill="#4C8EDA" stroke="#2870c2" stroke-width="2px"/><text text-anchor="middle" pointer-events="none" font-family="sans-serif" dy="2.03125" font-size="32.5" fill="#FFFFFF"/><text text-anchor="middle" pointer-events="none" y="5" font-size="10px" fill="#FFFFFF" font-family="sans-serif"> lastname</text></g><g class="node" transform="translate(-172.96522976918317,646.082690680131)"><circle class="outline" cx="0" cy="0" r="32.5" fill="#DA7194" stroke="#cc3c6c" stroke-width="2px"/><text text-anchor="middle" pointer-events="none" font-family="sans-serif" dy="2.03125" font-size="32.5" fill="#FFFFFF"/><text text-anchor="middle" pointer-events="none" y="5" font-size="10px" fill="#FFFFFF" font-family="sans-serif"> LIKES</text></g><g class="node" transform="translate(167.1703693783356,542.5254050146726)"><circle class="outline" cx="0" cy="0" r="32.5" fill="#4C8EDA" stroke="#2870c2" stroke-width="2px"/><text text-anchor="middle" pointer-events="none" font-family="sans-serif" dy="2.03125" font-size="32.5" fill="#FFFFFF"/><text text-anchor="middle" pointer-events="none" y="5" font-size="10px" fill="#FFFFFF" font-family="sans-serif"> firstname</text></g><g class="node" transform="translate(-186.6240346857262,-8.948277906446549)"><circle class="outline" cx="0" cy="0" r="32.5" fill="#4C8EDA" stroke="#2870c2" stroke-width="2px"/><text text-anchor="middle" pointer-events="none" font-family="sans-serif" dy="2.03125" font-size="32.5" fill="#FFFFFF"/><text text-anchor="middle" pointer-events="none" y="5" font-size="10px" fill="#FFFFFF" font-family="sans-serif"> _schemana…</text></g><g class="node" transform="translate(-100.46322401396048,120.69895079885288)"><circle class="outline" cx="0" cy="0" r="32.5" fill="#DA7194" stroke="#cc3c6c" stroke-width="2px"/><text text-anchor="middle" pointer-events="none" font-family="sans-serif" dy="2.03125" font-size="32.5" fill="#FFFFFF"/><text text-anchor="middle" pointer-events="none" y="5" font-size="10px" fill="#FFFFFF" font-family="sans-serif"> _TARGET</text></g><g class="node" transform="translate(91.95454358996432,280.5074162822787)"><circle class="outline" cx="0" cy="0" r="32.5" fill="#4C8EDA" stroke="#2870c2" stroke-width="2px"/><text text-anchor="middle" pointer-events="none" font-family="sans-serif" dy="2.03125" font-size="32.5" fill="#FFFFFF"/><text text-anchor="middle" pointer-events="none" y="5" font-size="10px" fill="#FFFFFF" font-family="sans-serif"> _targetarity</text></g><g class="node" transform="translate(102.47266447625469,114.61243095581636)"><circle class="outline" cx="0" cy="0" r="32.5" fill="#DA7194" stroke="#cc3c6c" stroke-width="2px"/><text text-anchor="middle" pointer-events="none" font-family="sans-serif" dy="2.03125" font-size="32.5" fill="#FFFFFF"/><text text-anchor="middle" pointer-events="none" y="5" font-size="10px" fill="#FFFFFF" font-family="sans-serif"> _SOURCE</text></g><g class="node" transform="translate(-97.13055646162032,279.60721061868264)"><circle class="outline" cx="0" cy="0" r="32.5" fill="#4C8EDA" stroke="#2870c2" stroke-width="2px"/><text text-anchor="middle" pointer-events="none" font-family="sans-serif" dy="2.03125" font-size="32.5" fill="#FFFFFF"/><text text-anchor="middle" pointer-events="none" y="5" font-size="10px" fill="#FFFFFF" font-family="sans-serif"> _sourcearity</text></g><g class="node" transform="translate(-182.31763756523225,454.827283843747)"><circle class="outline" cx="0" cy="0" r="32.5" fill="#4C8EDA" stroke="#2870c2" stroke-width="2px"/><text text-anchor="middle" pointer-events="none" font-family="sans-serif" dy="2.03125" font-size="32.5" fill="#FFFFFF"/><text text-anchor="middle" pointer-events="none" y="5" font-size="10px" fill="#FFFFFF" font-family="sans-serif"> _scalartype</text></g><g class="node" transform="translate(171.17987925159224,726.0516499205982)"><circle class="outline" cx="0" cy="0" r="32.5" fill="#4C8EDA" stroke="#2870c2" stroke-width="2px"/><text text-anchor="middle" pointer-events="none" font-family="sans-serif" dy="2.03125" font-size="32.5" fill="#FFFFFF"/><text text-anchor="middle" pointer-events="none" y="5" font-size="10px" fill="#FFFFFF" font-family="sans-serif"> name</text></g></g></svg>