<svg xmlns="http://www.w3.org/2000/svg" width="880.6871337890625" height="665.7633666992188" viewBox="-514.993896484375 -304.3083190917969 880.6871337890625 665.7633666992188"><title>Neo4j Graph Visualization</title><desc>Created using Neo4j (http://www.neo4j.com/)</desc><g class="layer relationships"><g class="relationship" transform="translate(-241.1372294565848 -260.308324980095) rotate(408.46256054093817)"><path class="outline" fill="#A5ABB6" stroke="none" d="M 40 0.5 L 147.22848515786941 0.5 L 147.22848515786941 -0.5 L 40 -0.5 Z M 196.22848515786941 0.5 L 303.45697031573883 0.5 L 303.45697031573883 3.5 L 310.45697031573883 0 L 303.45697031573883 -3.5 L 303.45697031573883 -0.5 L 196.22848515786941 -0.5 Z"/><text text-anchor="middle" pointer-events="none" font-size="8px" fill="#000000" x="171.72848515786941" y="3" font-family="sans-serif">SEM_PROP</text></g><g class="relationship" transform="translate(-241.1372294565848 -260.308324980095) rotate(390.5397408753854)"><path class="outline" fill="#A5ABB6" stroke="none" d="M 40 0.5 L 106.2973896261926 0.5 L 106.2973896261926 -0.5 L 40 -0.5 Z M 155.2973896261926 0.5 L 221.5947792523852 0.5 L 221.5947792523852 3.5 L 228.5947792523852 0 L 221.5947792523852 -3.5 L 221.5947792523852 -0.5 L 155.2973896261926 -0.5 Z"/><text text-anchor="middle" pointer-events="none" font-size="8px" fill="#000000" x="130.7973896261926" y="3" font-family="sans-serif">SEM_PROP</text></g><g class="relationship" transform="translate(-241.1372294565848 -260.308324980095) rotate(509.2624434914914)"><path class="outline" fill="#A5ABB6" stroke="none" d="M 40 0.5 L 105.71264980837549 0.5 L 105.71264980837549 -0.5 L 40 -0.5 Z M 154.7126498083755 0.5 L 220.42529961675098 0.5 L 220.42529961675098 3.5 L 227.42529961675098 0 L 220.42529961675098 -3.5 L 220.42529961675098 -0.5 L 154.7126498083755 -0.5 Z"/><text text-anchor="middle" pointer-events="none" font-size="8px" fill="#000000" x="130.2126498083755" y="3" transform="rotate(180 130.2126498083755 0)" font-family="sans-serif">SEM_PROP</text></g><g class="relationship" transform="translate(-236.28427499162768 140.53006242973692) rotate(328.66913098869026)"><path class="outline" fill="#A5ABB6" stroke="none" d="M 40 0.5 L 105.1912721020314 0.5 L 105.1912721020314 -0.5 L 40 -0.5 Z M 154.1912721020314 0.5 L 219.3825442040628 0.5 L 219.3825442040628 3.5 L 226.3825442040628 0 L 219.3825442040628 -3.5 L 219.3825442040628 -0.5 L 154.1912721020314 -0.5 Z"/><text text-anchor="middle" pointer-events="none" font-size="8px" fill="#000000" x="129.6912721020314" y="3" font-family="sans-serif">SEM_PROP</text></g><g class="relationship" transform="translate(-236.28427499162768 140.53006242973692) rotate(180.0233298935774)"><path class="outline" fill="#A5ABB6" stroke="none" d="M 40 0.5 L 88.47382434254374 0.5 L 88.47382434254374 -0.5 L 40 -0.5 Z M 137.47382434254374 0.5 L 185.94764868508747 0.5 L 185.94764868508747 3.5 L 192.94764868508747 0 L 185.94764868508747 -3.5 L 185.94764868508747 -0.5 L 137.47382434254374 -0.5 Z"/><text text-anchor="middle" pointer-events="none" font-size="8px" fill="#000000" x="112.97382434254374" y="3" transform="rotate(180 112.97382434254374 0)" font-family="sans-serif">SEM_PROP</text></g><g class="relationship" transform="translate(-242.4867446210472 -124.44019518643287) rotate(539.7957334453395)"><path class="outline" fill="#A5ABB6" stroke="none" d="M 40 0.5 L 86.25432214098463 0.5 L 86.25432214098463 -0.5 L 40 -0.5 Z M 135.25432214098464 0.5 L 181.50864428196925 0.5 L 181.50864428196925 3.5 L 188.50864428196925 0 L 181.50864428196925 -3.5 L 181.50864428196925 -0.5 L 135.25432214098464 -0.5 Z"/><text text-anchor="middle" pointer-events="none" font-size="8px" fill="#000000" x="110.75432214098463" y="3" transform="rotate(180 110.75432214098463 0)" font-family="sans-serif">SEM_PROP</text></g><g class="relationship" transform="translate(-242.4867446210472 -124.44019518643287) rotate(360.151316534235)"><path class="outline" fill="#A5ABB6" stroke="none" d="M 40 0.5 L 88.34240540761671 0.5 L 88.34240540761671 -0.5 L 40 -0.5 Z M 137.3424054076167 0.5 L 185.68481081523342 0.5 L 185.68481081523342 3.5 L 192.68481081523342 0 L 185.68481081523342 -3.5 L 185.68481081523342 -0.5 L 137.3424054076167 -0.5 Z"/><text text-anchor="middle" pointer-events="none" font-size="8px" fill="#000000" x="112.84240540761671" y="3" font-family="sans-serif">SEM_PROP</text></g><g class="relationship" transform="translate(-242.4867446210472 -124.44019518643287) rotate(388.4139674747803)"><path class="outline" fill="#A5ABB6" stroke="none" d="M 40 0.5 L 104.87784528021379 0.5 L 104.87784528021379 -0.5 L 40 -0.5 Z M 153.8778452802138 0.5 L 218.75569056042758 0.5 L 218.75569056042758 3.5 L 225.75569056042758 0 L 218.75569056042758 -3.5 L 218.75569056042758 -0.5 L 153.8778452802138 -0.5 Z"/><text text-anchor="middle" pointer-events="none" font-size="8px" fill="#000000" x="129.3778452802138" y="3" font-family="sans-serif">SEM_PROP</text></g><g class="relationship" transform="translate(-240.99958682690664 0.5117342911235596) rotate(180.09203069368573)"><path class="outline" fill="#A5ABB6" stroke="none" d="M 40 0.5 L 85.65025790191372 0.5 L 85.65025790191372 -0.5 L 40 -0.5 Z M 134.65025790191373 0.5 L 180.30051580382744 0.5 L 180.30051580382744 3.5 L 187.30051580382744 0 L 180.30051580382744 -3.5 L 180.30051580382744 -0.5 L 134.65025790191373 -0.5 Z"/><text text-anchor="middle" pointer-events="none" font-size="8px" fill="#000000" x="110.15025790191372" y="3" transform="rotate(180 110.15025790191372 0)" font-family="sans-serif">SEM_PROP</text></g><g class="relationship" transform="translate(-240.99958682690664 0.5117342911235596) rotate(208.35753434563344)"><path class="outline" fill="#A5ABB6" stroke="none" d="M 40 0.5 L 102.6784820448836 0.5 L 102.6784820448836 -0.5 L 40 -0.5 Z M 151.6784820448836 0.5 L 214.3569640897672 0.5 L 214.3569640897672 3.5 L 221.3569640897672 0 L 214.3569640897672 -3.5 L 214.3569640897672 -0.5 L 151.6784820448836 -0.5 Z"/><text text-anchor="middle" pointer-events="none" font-size="8px" fill="#000000" x="127.1784820448836" y="3" transform="rotate(180 127.1784820448836 0)" font-family="sans-serif">SEM_PROP</text></g><g class="relationship" transform="translate(-240.99958682690664 0.5117342911235596) rotate(360.37124476619937)"><path class="outline" fill="#A5ABB6" stroke="none" d="M 40 0.5 L 88.12925554907974 0.5 L 88.12925554907974 -0.5 L 40 -0.5 Z M 137.12925554907974 0.5 L 185.2585110981595 0.5 L 185.2585110981595 3.5 L 192.2585110981595 0 L 185.2585110981595 -3.5 L 185.2585110981595 -0.5 L 137.12925554907974 -0.5 Z"/><text text-anchor="middle" pointer-events="none" font-size="8px" fill="#000000" x="112.62925554907974" y="3" font-family="sans-serif">SEM_PROP</text></g><g class="relationship" transform="translate(-240.99958682690664 0.5117342911235596) rotate(331.728683282363)"><path class="outline" fill="#A5ABB6" stroke="none" d="M 40 0.5 L 103.25525952562083 0.5 L 103.25525952562083 -0.5 L 40 -0.5 Z M 152.25525952562083 0.5 L 215.51051905124166 0.5 L 215.51051905124166 3.5 L 222.51051905124166 0 L 215.51051905124166 -3.5 L 215.51051905124166 -0.5 L 152.25525952562083 -0.5 Z"/><text text-anchor="middle" pointer-events="none" font-size="8px" fill="#000000" x="127.75525952562083" y="3" font-family="sans-serif">SEM_PROP</text></g><g class="relationship" transform="translate(171.46766611771557 1.8362363002552797) rotate(539.942647093252)"><path class="outline" fill="#A5ABB6" stroke="none" d="M 40 0.5 L 62.10685379620119 0.5 L 62.10685379620119 -0.5 L 40 -0.5 Z M 111.1068537962012 0.5 L 133.2137075924024 0.5 L 133.2137075924024 3.5 L 140.2137075924024 0 L 133.2137075924024 -3.5 L 133.2137075924024 -0.5 L 111.1068537962012 -0.5 Z"/><text text-anchor="middle" pointer-events="none" font-size="8px" fill="#000000" x="86.6068537962012" y="3" transform="rotate(180 86.6068537962012 0)" font-family="sans-serif">SEM_PROP</text></g><g class="relationship" transform="translate(171.46766611771557 1.8362363002552797) rotate(404.9933341632008)"><path class="outline" fill="#A5ABB6" stroke="none" d="M 40 0.5 L 78.21315693771139 0.5 L 78.21315693771139 -0.5 L 40 -0.5 Z M 127.21315693771139 0.5 L 165.42631387542278 0.5 L 165.42631387542278 3.5 L 172.42631387542278 0 L 165.42631387542278 -3.5 L 165.42631387542278 -0.5 L 127.21315693771139 -0.5 Z"/><text text-anchor="middle" pointer-events="none" font-size="8px" fill="#000000" x="102.71315693771139" y="3" font-family="sans-serif">SEM_PROP</text></g><g class="relationship" transform="translate(171.46766611771557 1.8362363002552797) rotate(318.5942056780625)"><path class="outline" fill="#A5ABB6" stroke="none" d="M 40 0.5 L 71.6507164791427 0.5 L 71.6507164791427 -0.5 L 40 -0.5 Z M 120.6507164791427 0.5 L 152.3014329582854 0.5 L 152.3014329582854 3.5 L 159.3014329582854 0 L 152.3014329582854 -3.5 L 152.3014329582854 -0.5 L 120.6507164791427 -0.5 Z"/><text text-anchor="middle" pointer-events="none" font-size="8px" fill="#000000" x="96.1507164791427" y="3" font-family="sans-serif">SEM_PROP</text></g><g class="relationship" transform="translate(171.46766611771557 1.8362363002552797) rotate(361.85713489348586)"><path class="outline" fill="#A5ABB6" stroke="none" d="M 40 0.5 L 46.73581451044517 0.5 L 46.73581451044517 -0.5 L 40 -0.5 Z M 95.73581451044517 0.5 L 102.47162902089033 0.5 L 102.47162902089033 3.5 L 109.47162902089033 0 L 102.47162902089033 -3.5 L 102.47162902089033 -0.5 L 95.73581451044517 -0.5 Z"/><text text-anchor="middle" pointer-events="none" font-size="8px" fill="#000000" x="71.23581451044517" y="3" font-family="sans-serif">SEM_PROP</text></g><g class="relationship" transform="translate(176.79289692385004 317.45505242739563) rotate(180.04829210432683)"><path class="outline" fill="#A5ABB6" stroke="none" d="M 38.50762352901147,-10.835724717245364 L 38.766442574113995,-9.869798890956295 A 235.5738309832283 235.5738309832283 0 0 1 84.23757641040727,-17.386313598948192 L 84.1717802220733,-18.384146681983992 A 236.5738309832283 236.5738309832283 0 0 0 38.50762352901147,-10.835724717245364 Z M 111.21320753180927,-18.618284100158746 L 111.164699330696,-17.619461315864783 A 235.5738309832283 235.5738309832283 0 0 1 156.7591691100569,-10.891435509396898 L 156.03300527031638,-7.980647630170155 L 163.6720348015427,-9.682184529873494 L 157.72738756304426,-14.772486015032554 L 157.00122372330375,-11.861698135805812 A 236.5738309832283 236.5738309832283 0 0 0 111.21320753180927,-18.618284100158746"/><text text-anchor="middle" pointer-events="none" font-size="8px" fill="#000000" x="97.69347472143599" y="-15.387933903163457" transform="rotate(180 97.69347472143599 -18.387933903163457)" font-family="sans-serif">LIKES</text></g><g class="relationship" transform="translate(-25.689571011585855 317.2843887787898) rotate(360.04829210432683)"><path class="outline" fill="#A5ABB6" stroke="none" d="M 38.50762352901147,-10.835724717245364 L 38.766442574113995,-9.869798890956295 A 235.5738309832283 235.5738309832283 0 0 1 84.23757641040727,-17.386313598948192 L 84.1717802220733,-18.384146681983992 A 236.5738309832283 236.5738309832283 0 0 0 38.50762352901147,-10.835724717245364 Z M 111.21320753180927,-18.618284100158746 L 111.164699330696,-17.619461315864783 A 235.5738309832283 235.5738309832283 0 0 1 156.7591691100569,-10.891435509396898 L 156.03300527031638,-7.980647630170155 L 163.6720348015427,-9.682184529873494 L 157.72738756304426,-14.772486015032554 L 157.00122372330375,-11.861698135805812 A 236.5738309832283 236.5738309832283 0 0 0 111.21320753180927,-18.618284100158746"/><text text-anchor="middle" pointer-events="none" font-size="8px" fill="#000000" x="97.69347472143599" y="-15.387933903163457" font-family="sans-serif">LIKES</text></g></g><g class="layer nodes"><g class="node" transform="translate(-241.1372294565848,-260.308324980095)"><circle class="outline" cx="0" cy="0" r="40" fill="#FFD86E" stroke="#EDBA39" stroke-width="2px"/><text text-anchor="middle" pointer-events="none" font-family="sans-serif" dy="2.5" font-size="40" fill="#604A0E"/><text text-anchor="middle" pointer-events="none" y="5" font-size="10px" fill="#604A0E" font-family="sans-serif"> Sem_Label</text></g><g class="node" transform="translate(-470.99393671970756,-123.62553527610882)"><circle class="outline" cx="0" cy="0" r="40" fill="#68BDF6" stroke="#5CA8DB" stroke-width="2px"/><text text-anchor="middle" pointer-events="none" font-family="sans-serif" dy="2.5" font-size="40" fill="#FFFFFF"/><text text-anchor="middle" pointer-events="none" y="5" font-size="10px" fill="#FFFFFF" font-family="sans-serif"> description</text></g><g class="node" transform="translate(-9.802745262405836,-123.82568189222582)"><circle class="outline" cx="0" cy="0" r="40" fill="#68BDF6" stroke="#5CA8DB" stroke-width="2px"/><text text-anchor="middle" pointer-events="none" font-family="sans-serif" dy="2.5" font-size="40" fill="#FFFFFF"/><text text-anchor="middle" pointer-events="none" y="5" font-size="10px" fill="#FFFFFF" font-family="sans-serif"> techname</text></g><g class="node" transform="translate(-8.745951188067409,2.0166296613023746)"><circle class="outline" cx="0" cy="0" r="40" fill="#68BDF6" stroke="#5CA8DB" stroke-width="2px"/><text text-anchor="middle" pointer-events="none" font-family="sans-serif" dy="2.5" font-size="40" fill="#FFFFFF"/><text text-anchor="middle" pointer-events="none" y="5" font-size="10px" fill="#FFFFFF" font-family="sans-serif"> _uid</text></g><g class="node" transform="translate(-236.28427499162768,140.53006242973692)"><circle class="outline" cx="0" cy="0" r="40" fill="#6DCE9E" stroke="#60B58B" stroke-width="2px"/><text text-anchor="middle" pointer-events="none" font-family="sans-serif" dy="2.5" font-size="40" fill="#FFFFFF"/><text text-anchor="middle" pointer-events="none" y="5" font-size="10px" fill="#FFFFFF" font-family="sans-serif"> SEM_PROP</text></g><g class="node" transform="translate(-469.23190436554546,140.43521000345106)"><circle class="outline" cx="0" cy="0" r="40" fill="#68BDF6" stroke="#5CA8DB" stroke-width="2px"/><text text-anchor="middle" pointer-events="none" font-family="sans-serif" dy="2.5" font-size="40" fill="#FFFFFF"/><text text-anchor="middle" pointer-events="none" y="5" font-size="10px" fill="#FFFFFF" font-family="sans-serif"> arity</text></g><g class="node" transform="translate(-242.4867446210472,-124.44019518643287)"><circle class="outline" cx="0" cy="0" r="40" fill="#FFD86E" stroke="#EDBA39" stroke-width="2px"/><text text-anchor="middle" pointer-events="none" font-family="sans-serif" dy="2.5" font-size="40" fill="#604A0E"/><text text-anchor="middle" pointer-events="none" y="5" font-size="10px" fill="#604A0E" font-family="sans-serif"> Sem_Relation</text></g><g class="node" transform="translate(-240.99958682690664,0.5117342911235596)"><circle class="outline" cx="0" cy="0" r="40" fill="#FFD86E" stroke="#EDBA39" stroke-width="2px"/><text text-anchor="middle" pointer-events="none" font-family="sans-serif" dy="2.5" font-size="40" fill="#604A0E"/><text text-anchor="middle" pointer-events="none" y="5" font-size="10px" fill="#604A0E" font-family="sans-serif"> Sem_Property</text></g><g class="node" transform="translate(-468.29980941284794,0.14663558180671998)"><circle class="outline" cx="0" cy="0" r="40" fill="#68BDF6" stroke="#5CA8DB" stroke-width="2px"/><text text-anchor="middle" pointer-events="none" font-family="sans-serif" dy="2.5" font-size="40" fill="#FFFFFF"/><text text-anchor="middle" pointer-events="none" y="5" font-size="10px" fill="#FFFFFF" font-family="sans-serif"> scalartype</text></g><g class="node" transform="translate(321.69322747384774,152.02684699857625)"><circle class="outline" cx="0" cy="0" r="40" fill="#68BDF6" stroke="#5CA8DB" stroke-width="2px"/><text text-anchor="middle" pointer-events="none" font-family="sans-serif" dy="2.5" font-size="40" fill="#FFFFFF"/><text text-anchor="middle" pointer-events="none" y="5" font-size="10px" fill="#FFFFFF" font-family="sans-serif"> name</text></g><g class="node" transform="translate(171.46766611771557,1.8362363002552797)"><circle class="outline" cx="0" cy="0" r="40" fill="#FFD86E" stroke="#EDBA39" stroke-width="2px"/><text text-anchor="middle" pointer-events="none" font-family="sans-serif" dy="2.5" font-size="40" fill="#604A0E"/><text text-anchor="middle" pointer-events="none" y="5" font-size="10px" fill="#604A0E" font-family="sans-serif"> Person</text></g><g class="node" transform="translate(320.9525474343504,-129.97928417050542)"><circle class="outline" cx="0" cy="0" r="40" fill="#68BDF6" stroke="#5CA8DB" stroke-width="2px"/><text text-anchor="middle" pointer-events="none" font-family="sans-serif" dy="2.5" font-size="40" fill="#FFFFFF"/><text text-anchor="middle" pointer-events="none" y="5" font-size="10px" fill="#FFFFFF" font-family="sans-serif"> firstname</text></g><g class="node" transform="translate(320.8607837996501,6.680229635337568)"><circle class="outline" cx="0" cy="0" r="40" fill="#68BDF6" stroke="#5CA8DB" stroke-width="2px"/><text text-anchor="middle" pointer-events="none" font-family="sans-serif" dy="2.5" font-size="40" fill="#FFFFFF"/><text text-anchor="middle" pointer-events="none" y="5" font-size="10px" fill="#FFFFFF" font-family="sans-serif"> lastname</text></g><g class="node" transform="translate(-231.27168572068513,313.70691246258775)"><circle class="outline" cx="0" cy="0" r="40" fill="#6DCE9E" stroke="#60B58B" stroke-width="2px"/><text text-anchor="middle" pointer-events="none" font-family="sans-serif" dy="2.5" font-size="40" fill="#FFFFFF"/><text text-anchor="middle" pointer-events="none" y="5" font-size="10px" fill="#FFFFFF" font-family="sans-serif"> LIKES</text></g><g class="node" transform="translate(176.79289692385004,317.45505242739563)"><circle class="outline" cx="0" cy="0" r="40" fill="#DE9BF9" stroke="#BF85D6" stroke-width="2px"/><text text-anchor="middle" pointer-events="none" font-family="sans-serif" dy="2.5" font-size="40" fill="#FFFFFF"/><text text-anchor="middle" pointer-events="none" y="5" font-size="10px" fill="#FFFFFF" font-family="sans-serif"> Bob</text></g><g class="node" transform="translate(-25.689571011585855,317.2843887787898)"><circle class="outline" cx="0" cy="0" r="40" fill="#DE9BF9" stroke="#BF85D6" stroke-width="2px"/><text text-anchor="middle" pointer-events="none" font-family="sans-serif" dy="2.5" font-size="40" fill="#FFFFFF"/><text text-anchor="middle" pointer-events="none" y="5" font-size="10px" fill="#FFFFFF" font-family="sans-serif"> Alice Alison</text></g></g></svg>