<svg xmlns="http://www.w3.org/2000/svg" width="940.5511474609375" height="703.1673583984375" viewBox="-921.1636962890625 -276.1463317871094 940.5511474609375 703.1673583984375"><title>Neo4j Graph Visualization</title><desc>Created using Neo4j (http://www.neo4j.com/)</desc><g class="layer relationships"><g class="relationship" transform="translate(-590.0137371502161 372.0783599785817) rotate(180.2003167100023)"><path class="outline" fill="#A5ABB6" stroke="none" d="M 38.50762352901147,-10.835724717245364 L 38.766442574113995,-9.869798890956295 A 319.7796762675252 319.7796762675252 0 0 1 105.76277230023689,-20.377002211513172 L 105.713461034078,-21.375785671042706 A 320.7796762675252 320.7796762675252 0 0 0 38.50762352901147,-10.835724717245364 Z M 132.74690791971346,-21.569905686027198 L 132.7119449974319,-20.570517075893235 A 319.7796762675252 319.7796762675252 0 0 1 199.8522571248941,-11.026513418210927 L 199.11749425618848,-8.117884269149206 L 206.76151895082236,-9.796838249408124 L 200.83194094983492,-14.904685616959886 L 200.0971780811293,-11.996056467898166 A 320.7796762675252 320.7796762675252 0 0 0 132.74690791971346,-21.569905686027198"/><text text-anchor="middle" pointer-events="none" font-size="8px" fill="#000000" x="119.23172887713321" y="-18.25777016562074" transform="rotate(180 119.23172887713321 -21.25777016562074)" font-family="sans-serif">LIKES</text></g><g class="relationship" transform="translate(-204.33807535624814 -232.1463389998622) rotate(505.8183727150487)"><path class="outline" fill="#A5ABB6" stroke="none" d="M 40 0.5 L 167.41955590431667 0.5 L 167.41955590431667 -0.5 L 40 -0.5 Z M 227.41955590431667 0.5 L 354.83911180863333 0.5 L 354.83911180863333 3.5 L 361.83911180863333 0 L 354.83911180863333 -3.5 L 354.83911180863333 -0.5 L 227.41955590431667 -0.5 Z"/><text text-anchor="middle" pointer-events="none" font-size="8px" fill="#000000" x="197.41955590431667" y="3" transform="rotate(180 197.41955590431667 0)" font-family="sans-serif">Sem_N_PROP</text></g><g class="relationship" transform="translate(-204.33807535624814 -232.1463389998622) rotate(519.7075910198815)"><path class="outline" fill="#A5ABB6" stroke="none" d="M 40 0.5 L 142.67761120576913 0.5 L 142.67761120576913 -0.5 L 40 -0.5 Z M 202.67761120576913 0.5 L 305.35522241153825 0.5 L 305.35522241153825 3.5 L 312.35522241153825 0 L 305.35522241153825 -3.5 L 305.35522241153825 -0.5 L 202.67761120576913 -0.5 Z"/><text text-anchor="middle" pointer-events="none" font-size="8px" fill="#000000" x="172.67761120576913" y="3" transform="rotate(180 172.67761120576913 0)" font-family="sans-serif">Sem_N_PROP</text></g><g class="relationship" transform="translate(-204.33807535624814 -232.1463389998622) rotate(390.04057319036417)"><path class="outline" fill="#A5ABB6" stroke="none" d="M 40 0.5 L 63.56268145531509 0.5 L 63.56268145531509 -0.5 L 40 -0.5 Z M 123.56268145531509 0.5 L 147.12536291063017 0.5 L 147.12536291063017 3.5 L 154.12536291063017 0 L 147.12536291063017 -3.5 L 147.12536291063017 -0.5 L 123.56268145531509 -0.5 Z"/><text text-anchor="middle" pointer-events="none" font-size="8px" fill="#000000" x="93.56268145531509" y="3" font-family="sans-serif">Sem_N_PROP</text></g><g class="relationship" transform="translate(-212.21192745719964 215.878082066784) rotate(214.4046402369999)"><path class="outline" fill="#A5ABB6" stroke="none" d="M 40 0.5 L 163.18196065808925 0.5 L 163.18196065808925 -0.5 L 40 -0.5 Z M 223.18196065808925 0.5 L 346.3639213161785 0.5 L 346.3639213161785 3.5 L 353.3639213161785 0 L 346.3639213161785 -3.5 L 346.3639213161785 -0.5 L 223.18196065808925 -0.5 Z"/><text text-anchor="middle" pointer-events="none" font-size="8px" fill="#000000" x="193.18196065808925" y="3" transform="rotate(180 193.18196065808925 0)" font-family="sans-serif">Sem_R_PROP</text></g><g class="relationship" transform="translate(-212.21192745719964 215.878082066784) rotate(339.84767850913454)"><path class="outline" fill="#A5ABB6" stroke="none" d="M 40 0.5 L 66.41658612995789 0.5 L 66.41658612995789 -0.5 L 40 -0.5 Z M 126.41658612995789 0.5 L 152.83317225991578 0.5 L 152.83317225991578 3.5 L 159.83317225991578 0 L 152.83317225991578 -3.5 L 152.83317225991578 -0.5 L 126.41658612995789 -0.5 Z"/><text text-anchor="middle" pointer-events="none" font-size="8px" fill="#000000" x="96.41658612995789" y="3" font-family="sans-serif">Sem_R_PROP</text></g><g class="relationship" transform="translate(-214.02493886568504 104.69001990488466) rotate(198.991739255195)"><path class="outline" fill="#A5ABB6" stroke="none" d="M 40 0.5 L 137.1591814574682 0.5 L 137.1591814574682 -0.5 L 40 -0.5 Z M 197.1591814574682 0.5 L 294.3183629149364 0.5 L 294.3183629149364 3.5 L 301.3183629149364 0 L 294.3183629149364 -3.5 L 294.3183629149364 -0.5 L 197.1591814574682 -0.5 Z"/><text text-anchor="middle" pointer-events="none" font-size="8px" fill="#000000" x="167.1591814574682" y="3" transform="rotate(180 167.1591814574682 0)" font-family="sans-serif">Sem_R_PROP</text></g><g class="relationship" transform="translate(-214.02493886568504 104.69001990488466) rotate(372.60098689409784)"><path class="outline" fill="#A5ABB6" stroke="none" d="M 40 0.5 L 63.543693103217436 0.5 L 63.543693103217436 -0.5 L 40 -0.5 Z M 123.54369310321744 0.5 L 147.08738620643487 0.5 L 147.08738620643487 3.5 L 154.08738620643487 0 L 147.08738620643487 -3.5 L 147.08738620643487 -0.5 L 123.54369310321744 -0.5 Z"/><text text-anchor="middle" pointer-events="none" font-size="8px" fill="#000000" x="93.54369310321744" y="3" font-family="sans-serif">Sem_R_PROP</text></g><g class="relationship" transform="translate(-209.36391709648584 -120.20477956668901) rotate(520.830247456543)"><path class="outline" fill="#A5ABB6" stroke="none" d="M 40 0.5 L 139.8100116229884 0.5 L 139.8100116229884 -0.5 L 40 -0.5 Z M 199.8100116229884 0.5 L 299.6200232459768 0.5 L 299.6200232459768 3.5 L 306.6200232459768 0 L 299.6200232459768 -3.5 L 299.6200232459768 -0.5 L 199.8100116229884 -0.5 Z"/><text text-anchor="middle" pointer-events="none" font-size="8px" fill="#000000" x="169.8100116229884" y="3" transform="rotate(180 169.8100116229884 0)" font-family="sans-serif">Sem_N_PROP</text></g><g class="relationship" transform="translate(-209.36391709648584 -120.20477956668901) rotate(355.1255920751139)"><path class="outline" fill="#A5ABB6" stroke="none" d="M 40 0.5 L 53.35139203796392 0.5 L 53.35139203796392 -0.5 L 40 -0.5 Z M 113.35139203796392 0.5 L 126.70278407592784 0.5 L 126.70278407592784 3.5 L 133.70278407592784 0 L 126.70278407592784 -3.5 L 126.70278407592784 -0.5 L 113.35139203796392 -0.5 Z"/><text text-anchor="middle" pointer-events="none" font-size="8px" fill="#000000" x="83.35139203796392" y="3" font-family="sans-serif">Sem_N_PROP</text></g><g class="relationship" transform="translate(-209.36391709648584 -120.20477956668901) rotate(538.1945059369217)"><path class="outline" fill="#A5ABB6" stroke="none" d="M 40 0.5 L 129.31103629113704 0.5 L 129.31103629113704 -0.5 L 40 -0.5 Z M 189.31103629113704 0.5 L 278.6220725822741 0.5 L 278.6220725822741 3.5 L 285.6220725822741 0 L 278.6220725822741 -3.5 L 278.6220725822741 -0.5 L 189.31103629113704 -0.5 Z"/><text text-anchor="middle" pointer-events="none" font-size="8px" fill="#000000" x="159.31103629113704" y="3" transform="rotate(180 159.31103629113704 0)" font-family="sans-serif">Sem_N_PROP</text></g><g class="relationship" transform="translate(-210.12199533004116 -8.428159323230915) rotate(539.6417641712416)"><path class="outline" fill="#A5ABB6" stroke="none" d="M 40 0.5 L 129.8240992708724 0.5 L 129.8240992708724 -0.5 L 40 -0.5 Z M 189.8240992708724 0.5 L 279.6481985417448 0.5 L 279.6481985417448 3.5 L 286.6481985417448 0 L 279.6481985417448 -3.5 L 279.6481985417448 -0.5 L 189.8240992708724 -0.5 Z"/><text text-anchor="middle" pointer-events="none" font-size="8px" fill="#000000" x="159.8240992708724" y="3" transform="rotate(180 159.8240992708724 0)" font-family="sans-serif">Sem_N_PROP</text></g><g class="relationship" transform="translate(-210.12199533004116 -8.428159323230915) rotate(197.3617238024492)"><path class="outline" fill="#A5ABB6" stroke="none" d="M 40 0.5 L 136.60098864003498 0.5 L 136.60098864003498 -0.5 L 40 -0.5 Z M 196.60098864003498 0.5 L 293.20197728006997 0.5 L 293.20197728006997 3.5 L 300.20197728006997 0 L 293.20197728006997 -3.5 L 293.20197728006997 -0.5 L 196.60098864003498 -0.5 Z"/><text text-anchor="middle" pointer-events="none" font-size="8px" fill="#000000" x="166.60098864003498" y="3" transform="rotate(180 166.60098864003498 0)" font-family="sans-serif">Sem_N_PROP</text></g><g class="relationship" transform="translate(-210.12199533004116 -8.428159323230915) rotate(323.94833104276483)"><path class="outline" fill="#A5ABB6" stroke="none" d="M 40 0.5 L 74.00495993372087 0.5 L 74.00495993372087 -0.5 L 40 -0.5 Z M 134.00495993372087 0.5 L 168.00991986744174 0.5 L 168.00991986744174 3.5 L 175.00991986744174 0 L 168.00991986744174 -3.5 L 168.00991986744174 -0.5 L 134.00495993372087 -0.5 Z"/><text text-anchor="middle" pointer-events="none" font-size="8px" fill="#000000" x="104.00495993372087" y="3" font-family="sans-serif">Sem_N_PROP</text></g><g class="relationship" transform="translate(-210.12199533004116 -8.428159323230915) rotate(358.196720047418)"><path class="outline" fill="#A5ABB6" stroke="none" d="M 40 0.5 L 56.8592018808767 0.5 L 56.8592018808767 -0.5 L 40 -0.5 Z M 116.8592018808767 0.5 L 133.7184037617534 0.5 L 133.7184037617534 3.5 L 140.7184037617534 0 L 133.7184037617534 -3.5 L 133.7184037617534 -0.5 L 116.8592018808767 -0.5 Z"/><text text-anchor="middle" pointer-events="none" font-size="8px" fill="#000000" x="86.8592018808767" y="3" font-family="sans-serif">Sem_N_PROP</text></g><g class="relationship" transform="translate(-715.1263929529898 -5.830942991687607) rotate(359.8217501376869)"><path class="outline" fill="#A5ABB6" stroke="none" d="M 40 0.5 L 55.68172347630866 0.5 L 55.68172347630866 -0.5 L 40 -0.5 Z M 115.68172347630866 0.5 L 131.36344695261732 0.5 L 131.36344695261732 3.5 L 138.36344695261732 0 L 131.36344695261732 -3.5 L 131.36344695261732 -0.5 L 115.68172347630866 -0.5 Z"/><text text-anchor="middle" pointer-events="none" font-size="8px" fill="#000000" x="85.68172347630866" y="3" font-family="sans-serif">Sem_N_PROP</text></g><g class="relationship" transform="translate(-715.1263929529898 -5.830942991687607) rotate(501.6198278165597)"><path class="outline" fill="#A5ABB6" stroke="none" d="M 40 0.5 L 69.85219526225706 0.5 L 69.85219526225706 -0.5 L 40 -0.5 Z M 129.85219526225706 0.5 L 159.7043905245141 0.5 L 159.7043905245141 3.5 L 166.7043905245141 0 L 159.7043905245141 -3.5 L 159.7043905245141 -0.5 L 129.85219526225706 -0.5 Z"/><text text-anchor="middle" pointer-events="none" font-size="8px" fill="#000000" x="99.85219526225706" y="3" transform="rotate(180 99.85219526225706 0)" font-family="sans-serif">Sem_N_PROP</text></g><g class="relationship" transform="translate(-715.1263929529898 -5.830942991687607) rotate(214.9835260806181)"><path class="outline" fill="#A5ABB6" stroke="none" d="M 40 0.5 L 64.49377745676989 0.5 L 64.49377745676989 -0.5 L 40 -0.5 Z M 124.49377745676989 0.5 L 148.98755491353978 0.5 L 148.98755491353978 3.5 L 155.98755491353978 0 L 148.98755491353978 -3.5 L 148.98755491353978 -0.5 L 124.49377745676989 -0.5 Z"/><text text-anchor="middle" pointer-events="none" font-size="8px" fill="#000000" x="94.49377745676989" y="3" transform="rotate(180 94.49377745676989 0)" font-family="sans-serif">Sem_N_PROP</text></g><g class="relationship" transform="translate(-715.1263929529898 -5.830942991687607) rotate(539.7742810617474)"><path class="outline" fill="#A5ABB6" stroke="none" d="M 40 0.5 L 46.82609813266723 0.5 L 46.82609813266723 -0.5 L 40 -0.5 Z M 106.82609813266723 0.5 L 113.65219626533445 0.5 L 113.65219626533445 3.5 L 120.65219626533445 0 L 113.65219626533445 -3.5 L 113.65219626533445 -0.5 L 106.82609813266723 -0.5 Z"/><text text-anchor="middle" pointer-events="none" font-size="8px" fill="#000000" x="76.82609813266723" y="3" transform="rotate(180 76.82609813266723 0)" font-family="sans-serif">Sem_N_PROP</text></g><g class="relationship" transform="translate(-835.5554774135597 371.2198968526307) rotate(360.2003167100023)"><path class="outline" fill="#A5ABB6" stroke="none" d="M 38.50762352901147,-10.835724717245364 L 38.766442574113995,-9.869798890956295 A 319.7796762675252 319.7796762675252 0 0 1 105.76277230023689,-20.377002211513172 L 105.713461034078,-21.375785671042706 A 320.7796762675252 320.7796762675252 0 0 0 38.50762352901147,-10.835724717245364 Z M 132.74690791971346,-21.569905686027198 L 132.7119449974319,-20.570517075893235 A 319.7796762675252 319.7796762675252 0 0 1 199.8522571248941,-11.026513418210927 L 199.11749425618848,-8.117884269149206 L 206.76151895082236,-9.796838249408124 L 200.83194094983492,-14.904685616959886 L 200.0971780811293,-11.996056467898166 A 320.7796762675252 320.7796762675252 0 0 0 132.74690791971346,-21.569905686027198"/><text text-anchor="middle" pointer-events="none" font-size="8px" fill="#000000" x="119.23172887713321" y="-18.25777016562074" font-family="sans-serif">LIKES</text></g></g><g class="layer nodes"><g class="node" transform="translate(-590.0137371502161,372.0783599785817)"><circle class="outline" cx="0" cy="0" r="40" fill="#DE9BF9" stroke="#BF85D6" stroke-width="2px"/><text text-anchor="middle" pointer-events="none" font-family="sans-serif" dy="2.5" font-size="40" fill="#FFFFFF"/><text text-anchor="middle" pointer-events="none" y="5" font-size="10px" fill="#FFFFFF" font-family="sans-serif"> Alice Alison</text></g><g class="node" transform="translate(-204.33807535624814,-232.1463389998622)"><circle class="outline" cx="0" cy="0" r="40" fill="#FFD86E" stroke="#EDBA39" stroke-width="2px"/><text text-anchor="middle" pointer-events="none" font-family="sans-serif" dy="2.5" font-size="40" fill="#604A0E"/><text text-anchor="middle" pointer-events="none" y="5" font-size="10px" fill="#604A0E" font-family="sans-serif"> Sem_Label</text></g><g class="node" transform="translate(-36.28935525849727,-134.96463188020078)"><circle class="outline" cx="0" cy="0" r="40" fill="#68BDF6" stroke="#5CA8DB" stroke-width="2px"/><text text-anchor="middle" pointer-events="none" font-family="sans-serif" dy="2.5" font-size="40" fill="#FFFFFF"/><text text-anchor="middle" pointer-events="none" y="5" font-size="10px" fill="#FFFFFF" font-family="sans-serif"> description</text></g><g class="node" transform="translate(-534.82433258488,-109.9455348139029)"><circle class="outline" cx="0" cy="0" r="40" fill="#68BDF6" stroke="#5CA8DB" stroke-width="2px"/><text text-anchor="middle" pointer-events="none" font-family="sans-serif" dy="2.5" font-size="40" fill="#FFFFFF"/><text text-anchor="middle" pointer-events="none" y="5" font-size="10px" fill="#FFFFFF" font-family="sans-serif"> techname</text></g><g class="node" transform="translate(-536.7638091550971,-6.385839161099156)"><circle class="outline" cx="0" cy="0" r="40" fill="#68BDF6" stroke="#5CA8DB" stroke-width="2px"/><text text-anchor="middle" pointer-events="none" font-family="sans-serif" dy="2.5" font-size="40" fill="#FFFFFF"/><text text-anchor="middle" pointer-events="none" y="5" font-size="10px" fill="#FFFFFF" font-family="sans-serif"> _uid</text></g><g class="node" transform="translate(-212.21192745719964,215.878082066784)"><circle class="outline" cx="0" cy="0" r="40" fill="#6DCE9E" stroke="#60B58B" stroke-width="2px"/><text text-anchor="middle" pointer-events="none" font-family="sans-serif" dy="2.5" font-size="40" fill="#FFFFFF"/><text text-anchor="middle" pointer-events="none" y="5" font-size="10px" fill="#FFFFFF" font-family="sans-serif"> Sem_N_PROP</text></g><g class="node" transform="translate(-214.02493886568504,104.69001990488466)"><circle class="outline" cx="0" cy="0" r="40" fill="#6DCE9E" stroke="#60B58B" stroke-width="2px"/><text text-anchor="middle" pointer-events="none" font-family="sans-serif" dy="2.5" font-size="40" fill="#FFFFFF"/><text text-anchor="middle" pointer-events="none" y="5" font-size="10px" fill="#FFFFFF" font-family="sans-serif"> Sem_R_PROP</text></g><g class="node" transform="translate(-24.612534681767585,147.03213399610706)"><circle class="outline" cx="0" cy="0" r="40" fill="#68BDF6" stroke="#5CA8DB" stroke-width="2px"/><text text-anchor="middle" pointer-events="none" font-family="sans-serif" dy="2.5" font-size="40" fill="#FFFFFF"/><text text-anchor="middle" pointer-events="none" y="5" font-size="10px" fill="#FFFFFF" font-family="sans-serif"> arity</text></g><g class="node" transform="translate(-209.36391709648584,-120.20477956668901)"><circle class="outline" cx="0" cy="0" r="40" fill="#FFD86E" stroke="#EDBA39" stroke-width="2px"/><text text-anchor="middle" pointer-events="none" font-family="sans-serif" dy="2.5" font-size="40" fill="#604A0E"/><text text-anchor="middle" pointer-events="none" y="5" font-size="10px" fill="#604A0E" font-family="sans-serif"> Sem_Relation</text></g><g class="node" transform="translate(-210.12199533004116,-8.428159323230915)"><circle class="outline" cx="0" cy="0" r="40" fill="#FFD86E" stroke="#EDBA39" stroke-width="2px"/><text text-anchor="middle" pointer-events="none" font-family="sans-serif" dy="2.5" font-size="40" fill="#604A0E"/><text text-anchor="middle" pointer-events="none" y="5" font-size="10px" fill="#604A0E" font-family="sans-serif"> Sem_Property</text></g><g class="node" transform="translate(-29.493090444203133,-14.115001851294835)"><circle class="outline" cx="0" cy="0" r="40" fill="#68BDF6" stroke="#5CA8DB" stroke-width="2px"/><text text-anchor="middle" pointer-events="none" font-family="sans-serif" dy="2.5" font-size="40" fill="#FFFFFF"/><text text-anchor="middle" pointer-events="none" y="5" font-size="10px" fill="#FFFFFF" font-family="sans-serif"> scalartype</text></g><g class="node" transform="translate(-877.1636938127579,122.50696330334219)"><circle class="outline" cx="0" cy="0" r="40" fill="#68BDF6" stroke="#5CA8DB" stroke-width="2px"/><text text-anchor="middle" pointer-events="none" font-family="sans-serif" dy="2.5" font-size="40" fill="#FFFFFF"/><text text-anchor="middle" pointer-events="none" y="5" font-size="10px" fill="#FFFFFF" font-family="sans-serif"> name</text></g><g class="node" transform="translate(-715.1263929529898,-5.830942991687607)"><circle class="outline" cx="0" cy="0" r="40" fill="#FFD86E" stroke="#EDBA39" stroke-width="2px"/><text text-anchor="middle" pointer-events="none" font-family="sans-serif" dy="2.5" font-size="40" fill="#604A0E"/><text text-anchor="middle" pointer-events="none" y="5" font-size="10px" fill="#604A0E" font-family="sans-serif"> Person</text></g><g class="node" transform="translate(-875.7023142720319,-118.19862150080596)"><circle class="outline" cx="0" cy="0" r="40" fill="#68BDF6" stroke="#5CA8DB" stroke-width="2px"/><text text-anchor="middle" pointer-events="none" font-family="sans-serif" dy="2.5" font-size="40" fill="#FFFFFF"/><text text-anchor="middle" pointer-events="none" y="5" font-size="10px" fill="#FFFFFF" font-family="sans-serif"> firstname</text></g><g class="node" transform="translate(-875.7773425617189,-5.198049091315397)"><circle class="outline" cx="0" cy="0" r="40" fill="#68BDF6" stroke="#5CA8DB" stroke-width="2px"/><text text-anchor="middle" pointer-events="none" font-family="sans-serif" dy="2.5" font-size="40" fill="#FFFFFF"/><text text-anchor="middle" pointer-events="none" y="5" font-size="10px" fill="#FFFFFF" font-family="sans-serif"> lastname</text></g><g class="node" transform="translate(-207.5162920141944,383.02103403649187)"><circle class="outline" cx="0" cy="0" r="40" fill="#6DCE9E" stroke="#60B58B" stroke-width="2px"/><text text-anchor="middle" pointer-events="none" font-family="sans-serif" dy="2.5" font-size="40" fill="#FFFFFF"/><text text-anchor="middle" pointer-events="none" y="5" font-size="10px" fill="#FFFFFF" font-family="sans-serif"> LIKES</text></g><g class="node" transform="translate(-835.5554774135597,371.2198968526307)"><circle class="outline" cx="0" cy="0" r="40" fill="#DE9BF9" stroke="#BF85D6" stroke-width="2px"/><text text-anchor="middle" pointer-events="none" font-family="sans-serif" dy="2.5" font-size="40" fill="#FFFFFF"/><text text-anchor="middle" pointer-events="none" y="5" font-size="10px" fill="#FFFFFF" font-family="sans-serif"> Bob</text></g></g></svg>